<svg width="80" height="80" viewBox="0 0 80 80" fill="none" xmlns="http://www.w3.org/2000/svg">
<g clip-path="url(#clip0_15_1702)">
<path d="M38.8595 0.234375C33.8907 1.1875 29.8438 4.23438 27.5782 8.71875L27.047 9.79688L14.1095 13.8281C7.00009 16.0469 0.984462 17.9688 0.750087 18.0938C0.062587 18.4844 -0.187413 19.3438 0.171962 20.0469C0.265712 20.2344 2.48446 22.5469 5.10946 25.1719L9.87509 29.9531L6.81259 35.0781C4.51571 38.9219 3.75009 40.3281 3.75009 40.7031C3.75009 41.7344 4.01571 41.8906 8.90634 43.5156L13.4376 45.0312V57.2188C13.4376 68.4062 13.4532 69.4375 13.7032 69.8594C13.8438 70.0938 14.0782 70.3438 14.2032 70.4062C15.9063 71.1094 39.797 80 39.9845 80C40.1251 80 46.6876 77.8438 54.5626 75.2188C67.5157 70.9062 68.9376 70.4062 69.297 69.9688L69.6876 69.5V56.9531V44.3906L72.1563 43.6094C73.5001 43.1875 75.6251 42.5156 76.8907 42.125C78.1407 41.7344 79.3126 41.2656 79.5001 41.0938C79.9063 40.7031 80.0626 40.1406 79.922 39.5625C79.8595 39.2969 78.1876 37.5 75.1095 34.4062L70.3907 29.6875L75.0313 25.0312C77.5782 22.4844 79.7345 20.2344 79.8282 20.0469C80.2501 19.2031 79.8438 18.2656 78.8751 17.9062C78.5001 17.7656 73.7345 16.2812 68.2813 14.6094C55.0938 10.5469 56.4532 11.0312 56.2345 10.3438C55.9688 9.46875 55.0782 7.75 54.3907 6.73438C52.297 3.65625 48.9688 1.375 45.2345 0.453125C43.547 0.03125 40.4688 -0.0625 38.8595 0.234375ZM44.6876 3.51562C48.9845 4.625 52.5782 8.23438 53.6876 12.5781C54.0782 14.1094 54.0782 17.1875 53.6876 18.6719C52.0001 25.0469 45.7813 29.0469 39.3751 27.9062C35.0157 27.125 31.1563 23.8125 29.7657 19.625C27.297 12.25 31.8751 4.70312 39.6563 3.28125C40.7188 3.07812 43.5001 3.21875 44.6876 3.51562ZM25.9845 14.6719C25.8126 16.8594 26.4532 20.2656 27.3595 22.0625C27.5313 22.3906 27.6563 22.6719 27.6563 22.7188C27.6563 22.75 24.2032 23.9375 20.0001 25.3438L12.3438 27.8906L8.43759 23.9844L4.53134 20.0781L15.1251 16.7656C20.9376 14.9531 25.7813 13.4531 25.8907 13.4531C26.0313 13.4375 26.0626 13.75 25.9845 14.6719ZM66.672 17.375L75.4688 20.0781L71.5626 23.9844L67.6563 27.8906L61.3751 25.7969C57.9063 24.6562 55.0626 23.6875 55.0313 23.6719C55.0001 23.6406 55.2032 23.1719 55.4845 22.6406C56.5001 20.625 56.9845 18.7188 57.1407 16.1406C57.2345 14.5781 57.2501 14.5156 57.5626 14.5938C57.7501 14.6406 61.8438 15.8906 66.672 17.375ZM30.547 26.625C35.2345 31.3281 42.2657 32.5469 48.2032 29.7031C49.7032 28.9844 51.8751 27.5 52.6251 26.6875L52.9845 26.2812L57.9845 27.9375C60.7188 28.8594 62.9688 29.6406 62.9688 29.6875C62.9688 29.7344 57.797 31.4844 51.4845 33.5938L40.0001 37.4219L28.5157 33.5938C22.2032 31.4844 17.0313 29.7344 17.0313 29.6875C17.0313 29.625 27.8282 25.9375 29.3438 25.4844C29.3595 25.4688 29.9063 25.9844 30.547 26.625ZM25.3438 35.8125L37.6563 39.9219L35.2188 43.9844C33.8751 46.2188 32.7657 48.0781 32.7345 48.1094C32.7032 48.125 27.047 46.2812 20.172 43.9844L7.65634 39.8125L7.85946 39.4688C7.95321 39.2656 9.06259 37.4062 10.3126 35.3281C11.9532 32.5938 12.6407 31.5781 12.8126 31.6406C12.9376 31.6875 18.5782 33.5625 25.3438 35.8125ZM71.5938 35.4219L75.4688 39.2969L62.297 43.4219C55.0626 45.6875 49.0782 47.5781 48.9845 47.5938C48.8282 47.6406 42.7188 40.0625 42.7657 39.875C42.797 39.7656 67.1407 31.5938 67.5001 31.5781C67.6251 31.5625 69.4688 33.2969 71.5938 35.4219ZM44.6095 47.2969C47.6876 51.1875 47.7501 51.2188 49.1407 50.8281C49.5782 50.7031 53.5938 49.4375 58.0782 48.0312C62.5626 46.625 66.3126 45.4688 66.4063 45.4688C66.5157 45.4688 66.5626 49.125 66.5626 56.7031V67.9375L54.2657 72.0469C47.4845 74.2969 41.8595 76.1719 41.7657 76.2188C41.6095 76.2656 41.5626 72.9375 41.5626 59.9062C41.5626 50.75 41.6251 43.5938 41.7032 43.6719C41.7657 43.7656 43.0782 45.3906 44.6095 47.2969ZM38.3751 76.0469C38.3438 76.0938 33.4376 74.2969 27.4688 72.0625L16.6407 68.0156L16.5938 57.0469C16.5782 51.0312 16.5782 46.0938 16.6095 46.0938C16.6251 46.0938 20.3282 47.3281 24.8438 48.8281C29.3595 50.3281 33.2032 51.5625 33.3907 51.5625C34.2345 51.5625 34.5313 51.2188 36.4532 48.0156L38.3595 44.8438L38.4063 60.4219C38.422 68.9844 38.4063 76.0156 38.3751 76.0469Z" fill="#265736"/>
<path d="M48.5938 9.625C48.3751 9.76563 46.3594 11.7188 44.1094 13.9531L40.0157 18.0313L38.9532 17.0156C38.3751 16.4531 37.7188 15.9063 37.5157 15.7969C36.9844 15.5 36.1719 15.7188 35.7188 16.2656C34.9063 17.2188 35.2344 17.9063 37.7032 20.2656C39.2188 21.7344 39.6719 21.9844 40.4219 21.7969C40.8751 21.6875 49.6251 13.1406 50.4844 11.9688C51.0938 11.1406 51.0782 10.5781 50.4063 9.90625C49.8126 9.3125 49.2188 9.21875 48.5938 9.625Z" fill="#265736"/>
<path d="M23.8281 57.9531C23.3281 58.1719 22.9687 58.6719 22.8593 59.25C22.7968 59.7031 22.8593 59.8906 23.25 60.3281C23.6406 60.7656 23.8281 60.8594 24.3593 60.8594C26.1875 60.8594 26.4218 58.2031 24.6093 57.8906C24.3593 57.8594 24 57.875 23.8281 57.9531Z" fill="#265736"/>
<path d="M29.5939 60.0938C28.6564 60.5469 28.4533 61.7813 29.2033 62.4688C29.6877 62.9375 33.0158 64.2344 33.7502 64.25C35.0314 64.2969 35.7189 62.7657 34.8908 61.7344C34.6252 61.4219 31.5627 60.1563 30.547 59.9375C30.2502 59.8907 29.8908 59.9375 29.5939 60.0938Z" fill="#265736"/>
<path d="M23.5783 64.6094C22.7502 65.0625 22.6095 66.3438 23.3283 67C23.7814 67.4219 33.1877 70.9375 33.8595 70.9375C35.2189 70.9375 35.7814 69.0781 34.672 68.25C34.1564 67.8594 24.8752 64.375 24.3752 64.375C24.1564 64.3906 23.797 64.4844 23.5783 64.6094Z" fill="#265736"/>
</g>
<defs>
<clipPath id="clip0_15_1702">
<rect width="80" height="80" fill="white"/>
</clipPath>
</defs>
</svg>
