<svg width="81" height="80" viewBox="0 0 81 80" fill="none" xmlns="http://www.w3.org/2000/svg">
<g clip-path="url(#clip0_15_1686)">
<path d="M3.70317 0.28125C2.15629 0.8125 0.984416 2.10938 0.656291 3.64062C0.531291 4.21875 0.500041 14.5938 0.531291 40.4688L0.578166 76.4844L0.906291 77.2031C1.34379 78.1406 2.35942 79.1562 3.29692 79.5938L4.01567 79.9219H19.8282H35.6563L36.0782 79.5C36.6719 78.8906 36.6719 77.9844 36.0782 77.375L35.6563 76.9531L20.1094 76.875L4.56254 76.7969L4.14067 76.3594L3.70317 75.9375V40V4.0625L4.14067 3.64062L4.56254 3.20312L25.5782 3.15625L46.5782 3.125L46.625 8.3125C46.6719 14.2188 46.7032 14.3281 48 15.625C49.2969 16.9219 49.4063 16.9531 55.3125 17L60.5 17.0469V31.2031V45.3438L61.0469 45.8906C61.5313 46.375 61.6719 46.4375 62.1719 46.3594C62.4844 46.2969 62.9219 46.0781 63.1407 45.8594L63.5469 45.4688L63.5938 30.5781C63.6094 22.4062 63.5938 15.4531 63.5469 15.1562C63.4532 14.6875 62.375 13.5469 56.3907 7.54688C52.5157 3.65625 49.1094 0.359375 48.8438 0.234375C48.4063 0.03125 45.6719 0 26.4063 0C6.03129 0.015625 4.42192 0.03125 3.70317 0.28125ZM54.0157 9.6875L58.2344 13.9062H54.5H50.7813L50.25 13.375L49.7188 12.8438V9.15625C49.7188 7.125 49.7344 5.46875 49.7657 5.46875C49.7813 5.46875 51.7032 7.35938 54.0157 9.6875Z" fill="#265736"/>
<path d="M29.3281 11.875C24.0312 13.0156 20.0469 16.8906 18.6875 22.1875C18.2812 23.7812 18.2812 26.9688 18.6875 28.5C20.0469 33.6406 23.7344 37.3281 28.875 38.6875C29.6719 38.8906 30.5156 38.9688 32.0625 38.9688C33.6094 38.9688 34.4531 38.8906 35.25 38.6875C40.4062 37.3125 44.125 33.5781 45.4375 28.4375C45.8438 26.8281 45.8438 23.8125 45.4375 22.1875C44.375 17.9531 41.4375 14.4531 37.5781 12.7656C35.0625 11.6562 31.8906 11.3125 29.3281 11.875ZM35.1094 15.1562C42.875 17.5625 45.2188 27.2344 39.3906 32.9219C33.8125 38.3906 24.3438 36 21.9688 28.5156C20.0625 22.5469 23.7031 16.3281 29.9375 14.9062C31.2656 14.6094 33.7031 14.7188 35.1094 15.1562Z" fill="#265736"/>
<path d="M31.0157 18.5L30.5782 18.875L30.5313 21.3125L30.4844 23.75H28.2969C25.9844 23.75 25.375 23.8906 25.0313 24.5156C24.75 25.0625 24.8438 25.8906 25.25 26.3594L25.625 26.7969L28.0469 26.8437L30.4844 26.8906L30.5313 29.3281L30.5782 31.75L31.0157 32.125C31.3125 32.375 31.6407 32.5 32.0625 32.5C32.4844 32.5 32.8125 32.375 33.1094 32.125L33.5469 31.75L33.5938 29.3281L33.6407 26.8906L36.0782 26.8437L38.5 26.7969L38.875 26.3594C39.2813 25.8906 39.375 25.0625 39.0938 24.5156C38.75 23.8906 38.1407 23.75 35.8125 23.75H33.625V21.5625C33.625 19.2344 33.4844 18.625 32.8594 18.2812C32.3125 18 31.4844 18.0937 31.0157 18.5Z" fill="#265736"/>
<path d="M11.5156 43.8906C10.5156 44.3125 10.25 45.6094 11.0156 46.3594L11.4375 46.7969H14.6562H17.875L18.25 46.3594C18.7656 45.7656 18.7656 44.8594 18.25 44.2656L17.875 43.8281L14.8437 43.7969C13.1875 43.7812 11.6875 43.8125 11.5156 43.8906Z" fill="#265736"/>
<path d="M24.25 43.9531C24.0312 44.0625 23.7344 44.4062 23.5781 44.7343C23.2969 45.2968 23.2969 45.3281 23.5781 45.8906C23.7344 46.2187 24.0312 46.5625 24.25 46.6718C24.5625 46.8281 27.6875 46.8593 38.6562 46.8281L52.6875 46.7968L53.1094 46.375C53.4375 46.0468 53.5469 45.7812 53.5469 45.3125C53.5469 44.8437 53.4375 44.5781 53.1094 44.25L52.6875 43.8281L38.6562 43.7968C27.6875 43.7656 24.5625 43.7968 24.25 43.9531Z" fill="#265736"/>
<path d="M57.7189 48.5938C55.3283 49.2188 55.2814 49.2657 47.3595 57.1563C41.9064 62.5782 39.922 64.6563 39.5001 65.375C37.3595 68.9844 37.8283 73.6719 40.6564 76.7657C41.8751 78.0782 43.2189 78.9688 44.797 79.4688C47.3751 80.2813 49.7501 80.0938 52.2189 78.8907C53.4689 78.2813 53.7814 78 57.3126 74.5L61.0783 70.7657L61.3283 72.0625C62.3595 77.2813 67.3595 80.7657 72.4689 79.8282C76.2501 79.1407 79.2189 76.3438 80.1876 72.5625C81.2033 68.5938 79.4533 64.3438 75.8908 62.0782C74.5158 61.2032 72.8283 60.7344 71.0783 60.7188L69.5314 60.7032L69.6251 60.1563C70.2658 56.3125 69.2501 53.1407 66.5939 50.7344C64.2189 48.5938 60.8595 47.7813 57.7189 48.5938ZM61.8283 51.625C63.0314 51.9375 63.9376 52.4688 64.8126 53.375C66.8439 55.4375 67.2658 58.3594 65.9376 61C65.5626 61.7344 64.8126 62.5938 62.6251 64.8125L59.797 67.6719L55.1408 63.0157L50.4845 58.3438L53.422 55.4532C56.3751 52.5313 57.0314 52.0313 58.4689 51.625C59.4064 51.375 60.8751 51.3594 61.8283 51.625ZM54.6876 72.75C52.4689 74.9375 51.6095 75.6875 50.8751 76.0625C48.2345 77.3907 45.3126 76.9688 43.2501 74.9375C41.1564 72.9063 40.6876 69.875 42.0626 67.1875C42.2814 66.7657 43.547 65.3438 45.3283 63.5469L48.2189 60.6094L52.8908 65.2657L57.547 69.9219L54.6876 72.75ZM69.2501 70.3125V76.7032L68.6251 76.4844C66.9533 75.8907 65.422 74.3907 64.7033 72.6563C64.2033 71.4375 64.2033 69.1875 64.6876 67.9844C65.2033 66.7657 65.8751 65.8594 66.8283 65.1407C67.4689 64.6563 68.7345 64 69.2189 63.9063C69.2345 63.9063 69.2501 66.7813 69.2501 70.3125ZM74.797 65.1407C75.7501 65.8594 76.422 66.7657 76.9376 67.9844C77.422 69.1875 77.422 71.4375 76.922 72.6563C76.2033 74.3907 74.672 75.8907 73.0001 76.4844L72.3751 76.7032V70.3125V63.9063L73.172 64.2032C73.5939 64.375 74.3439 64.7969 74.797 65.1407Z" fill="#265736"/>
<path d="M11.5156 52.6406C10.5156 53.0625 10.25 54.3594 11.0156 55.1094L11.4375 55.5469H14.6562H17.875L18.25 55.1094C18.7656 54.5156 18.7656 53.6094 18.25 53.0156L17.875 52.5781L14.8437 52.5469C13.1875 52.5312 11.6875 52.5625 11.5156 52.6406Z" fill="#265736"/>
<path d="M24.25 52.7031C24.0312 52.8125 23.7344 53.1562 23.5781 53.4843C23.2969 54.0468 23.2969 54.0781 23.5781 54.6406C23.7344 54.9687 24.0312 55.3125 24.25 55.4218C24.5469 55.5781 26.5156 55.6093 32.875 55.5781L41.125 55.5468L41.5469 55.125C41.875 54.7968 41.9844 54.5312 41.9844 54.0625C41.9844 53.5937 41.875 53.3281 41.5469 53L41.125 52.5781L32.875 52.5468C26.5156 52.5156 24.5469 52.5468 24.25 52.7031Z" fill="#265736"/>
<path d="M11.5156 61.3906C10.5156 61.8125 10.25 63.1094 11.0156 63.8594L11.4375 64.2969L14.3594 64.3437C17.4219 64.3906 17.9687 64.3125 18.3906 63.6875C18.75 63.1875 18.6875 62.2812 18.25 61.7656L17.875 61.3281L14.8437 61.2969C13.1875 61.2812 11.6875 61.3125 11.5156 61.3906Z" fill="#265736"/>
<path d="M24.2501 61.4531C23.6563 61.7344 23.2657 62.6562 23.4688 63.2187C23.7188 63.875 24.0782 64.2031 24.6407 64.3125C26.3751 64.6406 27.1251 62.2344 25.5469 61.4219C25.1094 61.2031 24.7344 61.2031 24.2501 61.4531Z" fill="#265736"/>
</g>
<defs>
<clipPath id="clip0_15_1686">
<rect width="80" height="80" fill="white" transform="translate(0.5)"/>
</clipPath>
</defs>
</svg>
