<svg width="80" height="80" viewBox="0 0 80 80" fill="none" xmlns="http://www.w3.org/2000/svg">
<path d="M0.796875 0.223057C-0.015625 0.676182 0.015625 0.238682 0 14.0199C0 23.6606 0.046875 26.9731 0.1875 27.2699C0.578125 28.1293 0.625 28.1293 8.42188 28.1293C13.6562 28.1293 15.7188 28.0824 16.0156 27.9418C16.625 27.6606 16.875 27.0512 16.875 25.7856V24.6918H17.7344C18.4688 24.6918 18.7188 24.7856 19.5625 25.3324L20.5469 25.9574L20.625 32.9418C20.7031 39.7231 20.7188 39.9418 21.0469 40.5512C21.4375 41.2856 22.2031 42.0356 22.9688 42.4418C23.4844 42.7231 24.0938 42.7387 32.8906 42.7856C39.7812 42.8168 42.375 42.7856 42.7031 42.6449C42.9375 42.5356 43.2344 42.2699 43.3594 42.0199C43.7344 41.3168 43.6562 40.8168 43.0625 40.2231L42.5312 39.6918H36.5312H30.5312L30.1875 38.6137C29.3594 36.0668 27.3125 34.0199 24.8125 33.2699L23.75 32.9418V30.3168V27.6762L25.125 28.2699C26.75 28.9887 29.5156 29.8949 31.2969 30.3012C33.7344 30.8793 39.1406 31.7543 40.1719 31.7387H41.1875L41.9062 32.5824C42.3125 33.0668 42.9375 33.7074 43.3125 34.0199C44.6719 35.1606 47.2656 36.0981 49.0625 36.0981C51.4688 36.0981 54.3438 34.7699 55.9375 32.9262C56.6406 32.0981 57.5 30.5668 57.8281 29.5356C58.3281 28.0043 58.2969 25.6293 57.7656 24.0981C57.2031 22.4574 56.4844 21.3637 55.25 20.2074C53.4844 18.5824 51.4531 17.7699 49.0625 17.7699C46.6719 17.7699 44.5625 18.6137 42.8438 20.2387L41.7812 21.2231L38.125 19.2074C36.1094 18.0981 34.2969 17.0043 34.1094 16.7856C33.4375 16.0356 33.7188 14.7074 34.6406 14.2387C34.8906 14.1137 39.5781 14.0668 51.2812 14.0668H67.5938L67.9375 15.1449C68.7656 17.7074 70.7344 19.6762 73.3125 20.5043L74.375 20.8481V26.8949V32.9418L73.3281 33.2699C70.8125 34.0199 68.7656 36.0668 67.9375 38.6137L67.5938 39.6918H61.5938H55.5938L55.0625 40.2231C54.4688 40.8168 54.3906 41.3168 54.7656 42.0199C54.8906 42.2699 55.1875 42.5356 55.4219 42.6449C55.75 42.7856 58.3438 42.8168 65.2344 42.7856C74.5 42.7387 74.6094 42.7387 75.2344 42.3949C75.9688 42.0043 76.7188 41.2387 77.125 40.4731C77.4062 39.9574 77.4219 39.2699 77.4688 27.2074C77.5156 12.7387 77.5781 13.5043 76.2656 12.1918C74.9688 10.8949 75.4531 10.9418 63.4531 10.9418H52.8906L48.8281 7.80118C44.5938 4.53556 43.625 3.87931 42.1875 3.33243C40.2656 2.58243 40.6719 2.59806 28.4844 2.53556L16.875 2.48868V1.86368C16.875 1.06681 16.5469 0.426182 16.0156 0.191807C15.4062 -0.0894432 1.3125 -0.0581932 0.796875 0.223057ZM13.75 14.0668V25.0043H8.4375H3.125V14.0668V3.12931H8.4375H13.75V14.0668ZM40.6875 6.05118C41.9375 6.53556 42.3594 6.81681 45.2031 8.97306L47.6719 10.8637L40.9062 10.9418L34.1406 11.0199L33.25 11.4574C32.2031 11.9731 31.5 12.7074 30.9688 13.8793C30.6406 14.6137 30.5938 14.8949 30.6562 16.0043C30.7344 17.5199 31.1406 18.3637 32.2344 19.3012C32.5938 19.6137 34.8281 20.9574 37.1875 22.2543C41.9219 24.8793 42.1875 25.0981 42.1875 26.3637C42.1875 27.7231 41.3281 28.5981 39.9844 28.5981C39.0469 28.5981 32.6406 27.4574 30.8281 26.9731C27.5938 26.0824 24.0469 24.5043 21.1094 22.6137L19.4844 21.5668H18.1719H16.875V13.5981V5.61368L28.3281 5.66056C39.7031 5.70743 39.7656 5.70743 40.6875 6.05118ZM74.0625 14.3793C74.3281 14.6449 74.375 14.8949 74.375 16.0981C74.375 16.9731 74.3125 17.5043 74.2188 17.5043C73.9375 17.5043 72.8906 16.9262 72.3594 16.4731C71.8594 16.0512 70.9375 14.6293 70.9375 14.2543C70.9375 14.1137 71.3281 14.0668 72.3438 14.0668C73.5469 14.0668 73.7969 14.1137 74.0625 14.3793ZM50.9219 21.1918C53.0938 21.8793 54.5938 23.6449 55 25.9887C55.6875 29.8949 51.9844 33.5668 48.0938 32.8481C46.7656 32.5981 45.6094 31.9731 44.6875 31.0043L43.9062 30.1918L44.4375 29.4106C45.4688 27.8793 45.5938 25.6606 44.7656 23.9574L44.3281 23.0668L45.0156 22.4574C46.625 21.0043 48.8594 20.5199 50.9219 21.1918ZM24.7031 36.5668C25.7656 37.1137 27.1875 38.8012 27.1875 39.5356C27.1875 39.6293 26.6562 39.6918 25.7812 39.6918C23.875 39.6918 23.75 39.5668 23.75 37.6606C23.75 36.7856 23.8125 36.2543 23.9062 36.2543C24 36.2543 24.3594 36.3949 24.7031 36.5668ZM74.375 37.6606C74.375 38.8637 74.3281 39.1137 74.0625 39.3793C73.7969 39.6449 73.5469 39.6918 72.3438 39.6918C71.4688 39.6918 70.9375 39.6293 70.9375 39.5356C70.9375 38.8168 72.3438 37.1293 73.3906 36.5824C74.3594 36.0668 74.375 36.0981 74.375 37.6606Z" fill="#265736"/>
<path d="M64.2812 25.848C63.7031 26.4261 63.6093 26.9417 63.9687 27.6449C64.7031 29.0511 66.8749 28.4261 66.8749 26.7855C66.8749 26.1917 65.9531 25.3167 65.3124 25.3167C64.9531 25.3167 64.6718 25.4574 64.2812 25.848Z" fill="#265736"/>
<path d="M48.0312 40.223C47.4531 40.8011 47.3593 41.3167 47.7187 42.0199C48.4531 43.4261 50.6249 42.8011 50.6249 41.1605C50.6249 40.5667 49.7031 39.6917 49.0624 39.6917C48.7031 39.6917 48.4218 39.8324 48.0312 40.223Z" fill="#265736"/>
<path d="M53.9531 51.9574C52.3906 52.2386 51.3906 52.5824 49.7812 53.4105C47.9375 54.3636 46.4531 55.5668 44.875 57.3949L43.5781 58.8949L38.3125 58.9418C33.2812 58.9886 33.0156 59.0043 32.3125 59.3324C31.2812 59.8011 30.0781 60.973 29.5781 62.0199C29.2031 62.7699 29.1406 63.0824 29.1406 64.2543C29.1406 65.0199 29.1094 65.6293 29.0781 65.6293C29.0625 65.6293 28.5312 65.3636 27.9062 65.0511C26.9375 64.5511 26.1719 63.848 21.9375 59.6605C16.2969 54.0824 16.1719 53.9886 13.9062 53.9886C12.7969 53.9886 12.4375 54.0668 11.7031 54.4105C10.4688 54.973 9.625 55.8011 9.03125 57.0043C8.5625 57.9418 8.51562 58.1918 8.51562 59.3793C8.53125 61.6605 8.64062 61.8168 14.0312 67.2386C16.5781 69.8011 19.2031 72.348 19.8438 72.8793C22.75 75.3011 25.4688 76.6605 29.375 77.6293L31.0156 78.0355L47.0781 78.0824C62.75 78.1449 63.125 78.1449 63.125 78.4418C63.125 78.598 63.2031 78.9261 63.3125 79.1449C63.7031 80.0043 63.75 80.0043 71.5625 80.0043C79.375 80.0043 79.4219 80.0043 79.8125 79.1449C79.9531 78.848 80 75.5355 80 65.9261C80 52.0199 80.0312 52.473 79.1406 52.0668C78.8438 51.9261 76.7812 51.8793 71.5469 51.8793C65.4062 51.8793 64.2969 51.9105 63.9062 52.1136C63.6406 52.2543 63.4375 52.4105 63.4375 52.473C63.4375 52.5511 63.3438 52.723 63.2344 52.8636C63.0625 53.1136 62.9531 53.098 61.75 52.6605C59.2969 51.7699 56.4219 51.5043 53.9531 51.9574ZM59.6094 55.223C60.125 55.3636 61.125 55.7543 61.8438 56.1136L63.125 56.7386V65.8636V75.0043H47.9375C31.2344 75.0043 31.0156 74.9886 28.2344 74.0668C26.6094 73.5199 24.75 72.598 23.3594 71.6761C22.1562 70.8793 12.0781 60.8793 11.7812 60.2074C11.4844 59.5199 11.5 59.0043 11.875 58.2855C12.3906 57.2855 13.5938 56.8011 14.6406 57.2074C14.875 57.2855 17.0781 59.348 19.5312 61.7699C21.9844 64.2074 24.4531 66.5199 25.0312 66.9261C26.2656 67.8011 28.2188 68.7543 29.8438 69.2386C31 69.598 31.0938 69.598 41.5469 69.6605L52.0781 69.7074L52.5312 69.2855C53 68.8168 53.125 67.9418 52.7969 67.3168C52.4062 66.5824 52.1562 66.5668 42.7031 66.5668C34.125 66.5668 33.8125 66.5511 33.3125 66.2543C32.5312 65.7699 32.1562 65.0668 32.2344 64.1761C32.3125 63.2855 32.7031 62.6918 33.4531 62.3168C33.9219 62.0668 34.5469 62.0355 39.25 62.0355C42.1406 62.0355 44.6719 61.973 44.875 61.8949C45.0938 61.8168 45.875 61.0199 46.625 60.1293C48.2969 58.1761 48.8125 57.6918 50.25 56.7386C51.4688 55.9261 52.6406 55.4418 54.2188 55.0824C55.4844 54.8011 58.2656 54.8793 59.6094 55.223ZM76.875 65.9418V76.8793H71.5625H66.25V65.9418V55.0043H71.5625H76.875V65.9418Z" fill="#265736"/>
</svg>
