<svg width="80" height="80" viewBox="0 0 80 80" fill="none" xmlns="http://www.w3.org/2000/svg">
<g clip-path="url(#clip0_15_1675)">
<path d="M11.3281 0.140627C11.1562 0.218752 10.875 0.437502 10.7031 0.625002C10.4062 0.953127 10.3906 1.21875 10.3437 4.90625C10.2968 9.40625 10.4687 11.0156 11.3125 13.4688C12.9062 18.125 16.7656 22.1094 21.375 23.8438C23.7968 24.75 24.6875 24.875 29.0625 24.9531L33.0468 25.0313L34.375 26.3125C35.9375 27.8438 36.3281 28.125 36.8906 28.125C37.4375 28.125 38.2343 27.4531 38.3593 26.8906C38.5156 26.1875 38.1875 25.6563 36.7187 24.1563L35.3437 22.7344L35.2656 18.75C35.2187 15.7813 35.125 14.4688 34.9218 13.5938C33.3437 6.60938 27.7968 1.375 20.7812 0.234377C19.1718 -0.0156231 11.9062 -0.0937481 11.3281 0.140627ZM21.6406 3.57813C25.5468 4.625 28.9531 7.42188 30.7031 11.0156C31.7343 13.0938 32.0468 14.4844 32.1406 17.2656L32.2187 19.6094L25.75 13.1875C22.2031 9.65625 19.125 6.64063 18.9062 6.5C18.2812 6.09375 17.6875 6.1875 17.0937 6.78125C16.5 7.375 16.4062 7.96875 16.8125 8.59375C16.9531 8.8125 19.9687 11.8906 23.5 15.4375L29.9218 21.9063L27.5781 21.8281C24.7968 21.7344 23.4062 21.4219 21.3281 20.3906C17.7343 18.6406 14.9375 15.2344 13.8906 11.3281C13.6093 10.2813 13.5312 9.51563 13.4687 6.57813L13.4062 3.09375L16.8906 3.15625C19.8281 3.21875 20.5937 3.29688 21.6406 3.57813Z" fill="#265736"/>
<path d="M41.6406 0.265626C38.3437 1.45313 37.3906 5.51563 39.8437 7.96875C40.7968 8.92188 41.7031 9.29688 43.125 9.29688C44.5468 9.29688 45.4531 8.92188 46.4062 7.96875C47.3593 7.01563 47.7343 6.10938 47.7343 4.6875C47.7343 3.26563 47.3593 2.35938 46.4062 1.40625C45.1562 0.156251 43.2343 -0.296874 41.6406 0.265626ZM44.2187 3.67188C45.1406 4.59375 44.4375 6.17188 43.1093 6.17188C42.5781 6.17188 42.3906 6.07813 42 5.64063C41.6093 5.20313 41.5468 5.01563 41.6093 4.5625C41.8281 3.21875 43.2656 2.73438 44.2187 3.67188Z" fill="#265736"/>
<path d="M65.3125 7.32812C63.9219 7.78125 62.7344 8.8125 62.1875 10.0469C61.8125 10.8906 61.7344 12.5781 62.0312 13.3594C62.1719 13.7188 62.1562 13.8594 61.9844 13.9844C61.875 14.0625 56.1562 18.8906 49.3125 24.6875L36.8438 35.2344L20.8906 35.3125L4.92188 35.3906L4.01562 35.75C1.5 36.7656 0.078125 38.9375 0.078125 41.7188C0.078125 42.875 0.140625 43.1719 0.5625 44.0625C1.1875 45.375 2.125 46.4062 3.17188 46.9531L4.01562 47.4062L4.20312 49.4375C4.51562 52.9531 5.29688 55.75 6.79688 58.8594C8.76562 62.9062 11.8594 66.5 15.6094 69.0938C17.0781 70.1094 19.875 71.5469 21.5156 72.125L22.7812 72.5781L22.8438 74.5312C22.8906 76.1094 22.9688 76.625 23.2344 77.2031C23.6562 78.1406 24.6719 79.1562 25.6094 79.5938C26.3281 79.9219 26.3438 79.9219 40 79.9219C53.6562 79.9219 53.6719 79.9219 54.3906 79.5938C55.3281 79.1562 56.3438 78.1406 56.7656 77.2031C57.0312 76.625 57.1094 76.1094 57.1562 74.5312L57.2188 72.5781L58.4844 72.125C60.125 71.5469 62.9219 70.1094 64.3906 69.0938C70.9688 64.5312 75.0938 57.4219 75.8125 49.3906L75.9844 47.4062L76.8281 46.9531C77.875 46.4062 78.8125 45.375 79.4375 44.0625C79.8594 43.1719 79.9219 42.875 79.9219 41.7188C79.9219 38.9219 78.4844 36.7656 75.9844 35.75C75.125 35.4062 74.8438 35.3906 69.9062 35.3125L64.7344 35.2344L68.7031 30.5469C70.8906 27.9688 72.8438 25.6562 73.0312 25.4219C73.3438 25.0312 73.4219 25 73.8438 25.1562C74.6094 25.4531 76.2812 25.375 77.1406 25C79.3906 24.0156 80.5312 21.4062 79.6875 19.1406C79.3594 18.2656 79 17.875 74.25 13.0938C68.6719 7.5 68.4531 7.32812 66.6406 7.25C66.125 7.21875 65.5312 7.25 65.3125 7.32812ZM67.1562 10.5312C67.8906 10.9219 76.6875 19.875 76.7969 20.3594C76.9375 20.875 76.6406 21.6406 76.1875 21.9531C76.0156 22.0781 75.5938 22.1875 75.2344 22.1875C74.625 22.1875 74.5156 22.0938 69.8125 17.375C65.1875 12.7656 65 12.5469 65 11.9844C65 11.2344 65.2031 10.8438 65.75 10.5625C66.2812 10.2656 66.625 10.25 67.1562 10.5312ZM70.7344 23.2812C70.625 23.4219 68.2969 26.1875 65.5625 29.4219L60.5781 35.3125H51.1094C42.9375 35.3125 41.6875 35.2812 41.875 35.0938C42 34.9688 47.0625 30.6719 53.125 25.5625L64.125 16.25L67.5312 19.6406C70.4219 22.5312 70.8906 23.0625 70.7344 23.2812ZM75.4219 38.9688C76.125 39.4375 76.875 40.6875 76.875 41.3906C76.875 42.625 76.0469 43.8906 74.9219 44.3906C74.3281 44.6719 72.8281 44.6875 39.9844 44.6875H5.6875L4.875 44.2812C3.54688 43.625 2.875 42.125 3.26562 40.6719C3.46875 39.9062 4.5 38.8125 5.21875 38.6094C5.5 38.5156 19.8125 38.4688 40.2344 38.4844L74.7656 38.5156L75.4219 38.9688ZM72.7344 48.7812C72.3594 52.4844 71.6719 54.9688 70.2188 57.8438C67 64.25 60.75 68.8906 53.5 70.25C52.0781 70.5312 51.0312 70.5469 40 70.5469C28.9688 70.5469 27.9219 70.5312 26.5 70.25C21.2188 69.2656 16.1875 66.375 12.9062 62.5C9.57812 58.5625 7.79688 54.2344 7.26562 48.8594L7.15625 47.8125H40H72.8438L72.7344 48.7812ZM40 73.7188C47.4844 73.7188 51.3594 73.6719 52.4688 73.5312L54.0938 73.3438L54.0312 74.6406C53.9844 75.8125 53.9375 75.9688 53.5469 76.3594L53.125 76.7969H40H26.875L26.4531 76.3594C26.0625 75.9688 26.0156 75.8125 25.9688 74.6406L25.9062 73.3438L27.5312 73.5312C28.6406 73.6719 32.5156 73.7188 40 73.7188Z" fill="#265736"/>
<path d="M12.172 52.1094C11.6407 52.4062 11.3438 53.125 11.4688 53.8125C11.6095 54.5469 12.9845 57.3281 13.8751 58.6562C14.8438 60.1094 17.5782 62.8594 19.0626 63.8594C21.7032 65.6562 24.7189 66.8125 27.8751 67.2812C30.1251 67.6094 31.1407 67.5312 31.6876 66.9844C32.2657 66.4062 32.2657 65.4687 31.6876 64.9062C31.3126 64.5312 31.1095 64.4687 29.5782 64.3437C25.172 63.9531 21.4845 62.2656 18.4845 59.2812C17.0313 57.8281 15.547 55.6562 14.8282 53.9062C14.5626 53.2656 14.1876 52.5781 14.0001 52.375C13.5626 51.9219 12.7032 51.7969 12.172 52.1094Z" fill="#265736"/>
<path d="M36.3126 64.5156C35.7032 64.7812 35.2814 65.4844 35.3751 66.0781C35.672 67.9531 38.3595 67.8125 38.3595 65.9375C38.3595 64.9062 37.2345 64.125 36.3126 64.5156Z" fill="#265736"/>
</g>
<defs>
<clipPath id="clip0_15_1675">
<rect width="80" height="80" fill="white"/>
</clipPath>
</defs>
</svg>
