<svg width="80" height="80" viewBox="0 0 80 80" fill="none" xmlns="http://www.w3.org/2000/svg">
<g clip-path="url(#clip0_15_1431)">
<path d="M0.796765 0.218834C-0.0313598 0.671959 0.0155152 -0.312416 -0.000109768 21.1407C-0.000109768 38.1251 0.0311402 41.172 0.21864 41.547C0.765515 42.5782 2.35927 42.5782 2.90614 41.547C3.09364 41.172 3.12489 39.3438 3.12489 30.2345V19.3751H31.5624H59.9999V21.4845V23.5938L59.578 23.422C59.3436 23.3282 58.578 23.2188 57.8905 23.172C54.7499 22.9688 51.7968 24.5782 50.1093 27.4063C49.2968 28.7813 48.7811 29.297 47.4061 30.1095C44.0311 32.1095 42.453 35.8595 43.4374 39.547C43.6093 40.1876 43.7499 41.0938 43.7499 41.5626C43.7499 42.0313 43.6093 42.9376 43.4374 43.5782C42.453 47.2657 44.0311 51.0157 47.4061 53.0157C48.7811 53.8282 49.2968 54.3438 50.1093 55.7188C50.7186 56.7345 52.6249 58.7501 52.9686 58.7501C53.0624 58.7501 53.1249 61.2032 53.1249 65.3126C53.1249 70.047 53.1718 71.9688 53.3124 72.2657C53.5155 72.7345 54.1718 73.1251 54.7343 73.1251C54.9218 73.1251 56.078 72.5157 57.2811 71.7813C58.4686 71.047 59.578 70.3751 59.7343 70.297C59.9843 70.1563 59.9999 70.3595 59.9999 73.5157V76.8751H31.5624H3.12489V65.7032C3.12489 53.5626 3.14052 53.8751 2.26552 53.4688C1.74989 53.2345 1.37489 53.2345 0.859265 53.4688C-0.0313598 53.8751 -0.000109768 53.4845 -0.000109768 66.6251C-0.000109768 75.6876 0.0467652 78.8438 0.18739 79.1407C0.59364 80.0626 -1.43761 80.0001 31.6249 80.0001H62.0311L62.5311 79.547L63.0468 79.0938L63.1249 74.6251L63.203 70.1563L65.6093 71.6407C68.3593 73.3282 68.6561 73.4063 69.4686 72.5938L69.9999 72.0626V65.4063C69.9999 61.2345 70.0624 58.7501 70.1561 58.7501C70.5155 58.7501 72.4061 56.7345 72.9843 55.7501C73.7655 54.4063 74.3436 53.8282 75.7186 53.0157C78.5468 51.3282 80.1718 48.3595 79.9374 45.2345C79.8905 44.547 79.7499 43.6407 79.6093 43.2188C79.3124 42.2345 79.3124 40.8907 79.6093 39.9063C79.7499 39.4845 79.8905 38.5782 79.9374 37.8907C80.1718 34.7657 78.5468 31.797 75.7186 30.1095C74.3436 29.297 73.7655 28.7188 72.9999 27.3907C71.1405 24.2032 67.2655 22.4688 63.9374 23.3438L63.1249 23.547V12.3907C63.1249 0.281334 63.1405 0.593834 62.2655 0.187584C61.6405 -0.109291 1.32802 -0.0780411 0.796765 0.218834ZM59.9999 9.68758V16.2501H31.5624H3.12489V9.68758V3.12508H31.5624H59.9999V9.68758ZM59.2186 26.5626C60.7499 26.9688 62.3593 26.9532 63.953 26.547C65.5624 26.1407 66.8436 26.2188 68.0155 26.797C69.0936 27.3438 69.703 27.9532 70.4999 29.297C71.328 30.6876 72.4374 31.797 73.828 32.6095C75.1405 33.3907 75.7811 34.0157 76.328 35.1095C76.9061 36.2813 76.9843 37.5782 76.578 39.1251C76.1561 40.7345 76.1561 42.3907 76.578 44.0001C77.328 46.8126 76.4061 49.0001 73.8593 50.5001C72.453 51.3282 71.3436 52.422 70.4999 53.8282C69.703 55.172 69.0936 55.7813 68.0155 56.3282C66.8436 56.9063 65.5624 56.9845 63.953 56.5782C62.328 56.1563 60.7968 56.1563 59.1718 56.5782C56.2499 57.3282 54.1405 56.4532 52.6249 53.8438C51.7968 52.4376 50.6874 51.3282 49.2811 50.5001C46.6561 48.9845 45.7968 46.8907 46.5468 43.9532C46.7343 43.2345 46.8749 42.1876 46.8749 41.5626C46.8749 40.9376 46.7343 39.8907 46.5468 39.172C45.7968 36.2345 46.6561 34.1407 49.2811 32.6251C50.6874 31.797 51.7968 30.6876 52.6249 29.2813C54.1718 26.6095 56.2186 25.7813 59.2186 26.5626ZM63.2186 59.6095C63.6405 59.7501 64.6405 59.9063 65.4374 59.9532L66.8749 60.047V64.4063V68.7501L65.5936 67.9376C61.6718 65.4845 61.578 65.4532 60.328 66.2188C59.9374 66.4688 58.8593 67.1407 57.9374 67.7032L56.2499 68.7501V64.3907V60.047L57.703 59.9532C58.4843 59.8907 59.453 59.7501 59.8436 59.6251C60.7811 59.3282 62.2655 59.3126 63.2186 59.6095Z" fill="#414042"/>
<path d="M8.49994 8.26562C7.62494 8.64062 7.37494 9.96875 8.03119 10.7344C8.34369 11.0938 8.53119 11.1719 9.14056 11.1719C10.0781 11.1719 10.6249 10.625 10.6249 9.6875C10.6249 8.59375 9.49994 7.84375 8.49994 8.26562Z" fill="#414042"/>
<path d="M17.8749 8.26562C16.9999 8.64062 16.7499 9.96875 17.4062 10.7344C17.7187 11.0938 17.9062 11.1719 18.5156 11.1719C19.4531 11.1719 19.9999 10.625 19.9999 9.6875C19.9999 8.59375 18.8749 7.84375 17.8749 8.26562Z" fill="#414042"/>
<path d="M27.2499 8.26562C26.3749 8.64062 26.1249 9.96875 26.7812 10.7344C27.0937 11.0938 27.2812 11.1719 27.8906 11.1719C28.8281 11.1719 29.3749 10.625 29.3749 9.6875C29.3749 8.59375 28.2499 7.84375 27.2499 8.26562Z" fill="#414042"/>
<path d="M37.9375 8.35928C37.4062 8.65615 37.1875 9.04678 37.1875 9.71865C37.1875 10.3593 37.5 10.828 38.0781 11.078C38.4062 11.203 40.75 11.2499 46.7031 11.2187L54.875 11.1718L55.25 10.7343C55.7656 10.1405 55.7656 9.23428 55.25 8.64053L54.875 8.20303L46.6094 8.17178C39.5469 8.14053 38.2969 8.17178 37.9375 8.35928Z" fill="#414042"/>
<path d="M59.1406 30.25C58.5469 30.375 57.3125 30.8438 56.4219 31.2813C55 31.9531 54.5938 32.25 53.4219 33.4219C52.25 34.5938 51.9531 35 51.2812 36.4219C50.3906 38.2344 50 39.8281 50 41.5625C50 43.2969 50.3906 44.8906 51.2812 46.7031C51.9531 48.125 52.25 48.5156 53.4219 49.6875C54.9062 51.1719 56.3594 52.0313 58.4375 52.6719C60.125 53.2031 63.0156 53.2031 64.6875 52.6719C68.6875 51.4219 71.4375 48.6719 72.6719 44.6875C73.2031 43 73.2031 40.125 72.6719 38.4375C71.4531 34.4844 68.6875 31.7031 64.7656 30.4688C63.3125 30.0156 60.6562 29.9063 59.1406 30.25ZM64.2812 33.6094C67.4375 34.6563 69.7188 37.6719 69.9531 41.0938C70.2031 44.75 67.8438 48.2656 64.3438 49.4844C59.9375 51.0156 55.2812 48.7969 53.6094 44.375C53.2812 43.5156 53.2188 43.0938 53.2188 41.5625C53.2188 39.5 53.5312 38.4219 54.5938 36.8281C56.6406 33.7344 60.6562 32.4063 64.2812 33.6094Z" fill="#414042"/>
<path d="M64.2968 38.0628C64.0468 38.1878 63.1093 39.0159 62.2343 39.8753L60.6405 41.469L59.703 40.5784C58.9061 39.8128 58.6874 39.6878 58.1718 39.6878C57.8436 39.6878 57.4218 39.7972 57.2343 39.9222C56.8124 40.219 56.4999 41.1253 56.6561 41.594C56.8124 42.1097 59.5155 44.844 60.1249 45.1097C60.5311 45.2815 60.7655 45.2972 61.1561 45.1565C61.828 44.9378 66.3124 40.4065 66.4686 39.8128C66.6249 39.1409 66.203 38.3128 65.5624 38.0472C64.8749 37.7659 64.8749 37.7659 64.2968 38.0628Z" fill="#414042"/>
<path d="M10.8594 26.7656C10.125 27.5 10.125 28.125 10.8594 28.8594L11.3906 29.3906L14.3125 29.3438L17.2188 29.2969L17.5938 28.8594C17.8438 28.5625 17.9688 28.2344 17.9688 27.8125C17.9688 27.3906 17.8438 27.0625 17.5938 26.7656L17.2188 26.3281L14.3125 26.2812L11.3906 26.2344L10.8594 26.7656Z" fill="#414042"/>
<path d="M24.8594 26.5002C24.6562 26.6408 24.4062 27.0002 24.2812 27.2814C24.0938 27.7346 24.0938 27.8908 24.2812 28.3439C24.7344 29.4221 24.25 29.3752 34.1719 29.3752C40.7656 29.3752 43.2188 29.3283 43.5156 29.1877C43.9688 28.9846 44.375 28.3283 44.375 27.8127C44.375 27.2971 43.9688 26.6408 43.5156 26.4377C43.2188 26.2971 40.7656 26.2502 34.1719 26.2502C26.1562 26.2502 25.1875 26.2814 24.8594 26.5002Z" fill="#414042"/>
<path d="M10.8438 36.7812C10.125 37.5 10.125 38.125 10.8438 38.8438L11.375 39.375H23.9688C33.3906 39.375 36.6562 39.3281 36.9531 39.1875C37.4062 38.9844 37.8125 38.3281 37.8125 37.8125C37.8125 37.2969 37.4062 36.6406 36.9531 36.4375C36.6562 36.2969 33.3906 36.25 23.9688 36.25H11.375L10.8438 36.7812Z" fill="#414042"/>
<path d="M0.796822 46.4688C-0.562553 47.2188 0.0155716 49.375 1.56245 49.375C2.35932 49.375 3.12495 48.6094 3.12495 47.8281C3.12495 46.6562 1.82807 45.8906 0.796822 46.4688Z" fill="#414042"/>
<path d="M10.8594 46.7656C10.125 47.5 10.125 48.125 10.8594 48.8594L11.3906 49.3906L14.3125 49.3438L17.2188 49.2969L17.5938 48.8594C17.8438 48.5625 17.9688 48.2344 17.9688 47.8125C17.9688 47.3906 17.8438 47.0625 17.5938 46.7656L17.2188 46.3281L14.3125 46.2812L11.3906 46.2344L10.8594 46.7656Z" fill="#414042"/>
<path d="M24.3906 46.5C24.1875 46.6406 23.9375 47 23.8125 47.2812C23.625 47.7344 23.625 47.8906 23.8125 48.3437C24.25 49.3906 24.1094 49.375 30.6719 49.375C37.0781 49.375 37.25 49.3594 37.625 48.5156C37.8594 48 37.8594 47.625 37.625 47.1094C37.25 46.2656 37.0781 46.25 30.6719 46.25C25.4531 46.25 24.7188 46.2812 24.3906 46.5Z" fill="#414042"/>
<path d="M10.8438 56.7811C10.125 57.4999 10.125 58.1249 10.8438 58.8436L11.375 59.3749H27.25C44.5156 59.3749 43.7813 59.4061 44.1875 58.5155C44.4219 57.9999 44.4219 57.6249 44.1875 57.1092C43.7813 56.2186 44.5156 56.2499 27.25 56.2499H11.375L10.8438 56.7811Z" fill="#414042"/>
<path d="M10.8438 66.7811C10.125 67.4999 10.125 68.1249 10.8438 68.8436L11.375 69.3749H27.25C44.5156 69.3749 43.7813 69.4061 44.1875 68.5155C44.4219 67.9999 44.4219 67.6249 44.1875 67.1092C43.7813 66.2186 44.5156 66.2499 27.25 66.2499H11.375L10.8438 66.7811Z" fill="#414042"/>
</g>
<defs>
<clipPath id="clip0_15_1431">
<rect width="80" height="80" fill="white"/>
</clipPath>
</defs>
</svg>
