<svg width="80" height="80" viewBox="0 0 80 80" fill="none" xmlns="http://www.w3.org/2000/svg">
<g clip-path="url(#clip0_15_1382)">
<path d="M37.3438 0.093956C33.0625 0.390831 28.0781 1.60958 24.0625 3.34396C21.1562 4.60958 16.7344 7.21896 16.1719 8.01583C15.8125 8.53146 15.875 9.28146 16.3281 9.81271C17.0938 10.7346 17.6719 10.6252 19.9531 9.10958C29.7812 2.53146 42.75 1.28146 53.8281 5.81271C56.0156 6.70333 57.625 7.53146 59.5312 8.73458C73.25 17.4533 79.6719 33.5158 75.7031 49.1565C74.0625 55.594 70.9375 61.0627 66.1719 65.8752C62.9844 69.094 60.4062 70.9533 56.4062 72.9533C43.2031 79.5158 27.5781 77.6408 16.2188 68.1408C10.25 63.1408 5.82812 55.8596 4.09375 48.1252C3.40625 45.0627 3.21875 43.4065 3.21875 40.0002C3.20312 35.9846 3.625 33.0627 4.70312 29.4221C5.59375 26.4533 7.14062 23.0783 8.98438 20.094C10.0156 18.4377 10.0938 17.8752 9.39062 17.1721C8.78125 16.5783 8.03125 16.5627 7.35938 17.1252C5.90625 18.344 2.875 24.5002 1.67188 28.6721C0.5 32.6877 0.09375 35.7033 0.09375 40.0783C0.109375 43.594 0.328125 45.7033 1.03125 48.8283C4.25 63.2033 15.4219 74.8127 29.6562 78.6096C38.9844 81.1096 48.8438 80.1565 57.4688 75.9377C61.4531 74.0002 64.4531 71.8908 67.625 68.8283C69.9531 66.5783 71.6406 64.594 73.2031 62.2658C76.7344 56.969 78.8594 51.3127 79.7188 44.844C80.0156 42.594 79.9688 36.7346 79.625 34.5315C78.25 25.5158 74.6094 18.1877 68.3906 11.9065C62.2656 5.71896 54.4688 1.73458 45.8906 0.453331C43.8906 0.156456 39.2656 -0.046669 37.3438 0.093956Z" fill="#414042"/>
<path d="M38.9064 5.46875C36.8907 5.82813 34.1876 6.79688 31.8282 8C27.0157 10.4688 22.5626 14.4844 19.1095 19.4531C16.3126 23.4844 15.7189 25.2031 16.3439 27.3594C17.0782 29.8594 19.0626 31.3281 21.7189 31.3281C22.8282 31.3281 23.1876 31.2656 23.9376 30.9063C25.1251 30.3594 26.0157 29.4219 26.9376 27.7813C28.5314 24.9375 31.3751 21.6563 33.9064 19.7344C35.5001 18.5313 38.4689 17.0313 40.3595 16.5C42.172 15.9844 43.0157 15.5469 43.7814 14.7188C45.922 12.3906 45.7814 8.9375 43.4689 6.84375C42.4376 5.92188 41.7345 5.625 40.0001 5.39063C39.7814 5.375 39.297 5.40625 38.9064 5.46875ZM40.9689 8.84375C42.297 9.53125 42.5939 11.4688 41.5157 12.5469C41.1251 12.9375 40.6095 13.1719 39.297 13.5625C36.5626 14.3906 34.2189 15.5938 32.0001 17.2969C31.5157 17.6563 31.0782 17.9688 31.0314 17.9688C30.9845 17.9688 30.9376 17.7656 30.9376 17.5156C30.9376 16.8281 30.2657 16.25 29.4532 16.25C28.5314 16.25 27.9689 16.8125 27.9689 17.7188C27.9689 18.2344 28.0626 18.4688 28.4064 18.7813C28.6407 19.0156 28.9845 19.2188 29.1876 19.25C29.5157 19.2969 29.4376 19.4219 28.3439 20.625C26.7814 22.3438 25.547 24 24.3439 26.0156C23.6251 27.2188 23.2345 27.7188 22.797 27.9531C22.0314 28.3906 21.1251 28.375 20.4689 27.9219C19.047 26.9531 18.9064 25.7656 19.9845 23.8594C20.6407 22.7188 20.9376 22.4063 20.9376 22.8594C20.9376 22.9844 21.1095 23.2344 21.3282 23.4375C22.1564 24.2188 23.6251 23.7188 23.8439 22.5625C24.0001 21.7031 23.297 20.7969 22.4532 20.7813C21.922 20.7813 21.9689 20.6875 23.2032 19.1406C26.0157 15.6094 29.8439 12.4688 33.5939 10.6094C35.2345 9.79688 35.5157 9.71875 35.3751 10.0625C35.3282 10.1719 35.4064 10.5313 35.5314 10.8438C35.9689 11.9063 37.297 12.1094 38.047 11.2188C38.5314 10.6563 38.547 9.96875 38.1251 9.375L37.797 8.92188L38.3907 8.76563C39.5001 8.48438 39.6095 8.46875 40.0782 8.54688C40.3439 8.59375 40.7345 8.73438 40.9689 8.84375Z" fill="#414042"/>
<path d="M11.8438 11.7031C11.4219 12.0781 11.3281 12.2656 11.3281 12.8125C11.3281 13.3594 11.4219 13.5469 11.8438 13.9219C12.125 14.1719 12.5312 14.375 12.75 14.375C14.1719 14.375 14.9531 12.6562 13.9688 11.6562C13.375 11.0781 12.5156 11.0938 11.8438 11.7031Z" fill="#414042"/>
<path d="M55.1405 12.641C54.3436 13.4379 54.5624 14.6722 55.578 15.0941C57.1249 15.7504 58.3905 13.8441 57.203 12.641C56.8593 12.3129 56.5936 12.1879 56.1718 12.1879C55.7499 12.1879 55.4843 12.3129 55.1405 12.641Z" fill="#414042"/>
<path d="M43.7187 21.5625C42.4687 21.7812 41.5625 22.3281 40.1406 23.7656C35.9531 27.9844 32.7187 34.1094 31.4843 40.125C29.2343 51.1562 32.4062 62.4531 39.9531 70.3281C41.8593 72.2969 42.7187 72.7344 44.7656 72.7344C46.0468 72.7344 46.2812 72.6875 47.2187 72.2188C49.5468 71.0781 50.7968 68.6562 50.3281 66.1562C50.0781 64.75 49.7812 64.25 48.2031 62.4219C47.4531 61.5625 46.4687 60.2969 46.0156 59.6094C43.1562 55.3281 41.8437 50.1562 42.3281 45.1562C42.8593 39.8125 44.75 35.6094 48.4062 31.6406C49 31.0156 49.625 30.1094 49.9062 29.5312C50.3281 28.6406 50.3906 28.3438 50.3906 27.1875C50.3906 26.0312 50.3281 25.7344 49.9062 24.8438C49.0625 23.0625 47.5937 21.9219 45.7031 21.5781C44.7031 21.3906 44.7656 21.3906 43.7187 21.5625ZM45.5 24.6875C46.2187 24.8906 47.1406 25.8906 47.2812 26.625C47.4687 27.6719 47.2344 28.2344 46.0312 29.5781C43.7187 32.2031 42.2031 34.5312 41.0937 37.25C40.5937 38.4375 40.5781 38.4688 40.3281 38.1562C39.9375 37.6562 39.2656 37.4531 38.6562 37.6562C37.5468 38.0312 37.2812 39.3438 38.125 40.1875C38.5468 40.6094 38.6875 40.6562 39.2812 40.5938L39.9687 40.5156L39.8281 41C38.8906 44.2656 38.9375 50.2969 39.9218 53.6562C40.2187 54.6562 40.2187 54.7344 39.8593 54.5312C38.9062 54.0312 37.625 54.7656 37.625 55.8281C37.625 56.5938 37.9843 57.1094 38.6562 57.3438C39.3281 57.5625 40.1406 57.2344 40.4687 56.6406C40.6718 56.2656 40.7187 56.3438 41.7031 58.3281C42.8906 60.7188 44.1093 62.5156 45.7343 64.3125C47.3594 66.125 47.6406 66.9219 47.0468 68.2188C46.5156 69.3906 45.1406 69.9688 43.8437 69.5312C43.2343 69.3438 41.4531 67.5 40.0156 65.5938C36.7968 61.3281 34.6406 55.8281 34.0625 50.4531C33.9062 48.8906 33.875 47.9219 34.0156 48.25C34.125 48.5312 34.9062 48.9062 35.375 48.9062C35.5937 48.9062 36 48.7031 36.2812 48.4531C36.7031 48.0781 36.7968 47.8906 36.7968 47.3594C36.7968 46.0312 35.2656 45.3594 34.2812 46.25L33.8593 46.6406L33.9687 45.0781C34.4687 37.8438 37.4687 31.0156 42.375 25.9062C43.6093 24.6406 44.2968 24.3594 45.5 24.6875Z" fill="#414042"/>
<path d="M40.5625 28.2657C39.1875 29.7032 41.2969 31.7814 42.7188 30.3751C43.3281 29.7501 43.2969 28.7657 42.6406 28.2189C41.9688 27.6407 41.1406 27.6564 40.5625 28.2657Z" fill="#414042"/>
<path d="M40.9375 62.6721C39.9219 63.0783 39.6719 64.3908 40.4532 65.1721C41.5625 66.2815 43.3438 65.1721 42.9375 63.6408C42.7188 62.8283 41.7344 62.3596 40.9375 62.6721Z" fill="#414042"/>
<path d="M56.7969 23.7816C56.0625 24.2035 55.7969 25.0472 56.1719 25.7816C56.4688 26.3597 57.3125 26.766 57.8907 26.6253C58.4063 26.5003 59.0625 25.7035 59.0625 25.2191C59.0625 24.0316 57.7813 23.2191 56.7969 23.7816Z" fill="#414042"/>
<path d="M64.0626 28.6098C62.1876 28.9379 60.4219 30.1254 59.3594 31.766C58.6719 32.8129 58.3594 33.8285 58.2032 35.391C58.0313 37.2504 57.2344 38.5473 55.8751 39.2504C55.5313 39.4223 54.5782 39.6567 53.6251 39.7817C51.0626 40.1098 49.3126 41.1254 48.1407 42.9379C46.3438 45.7504 46.6719 49.2504 48.9532 51.6723C50.5157 53.3285 52.3751 54.0004 55.0001 53.8598C59.5469 53.6254 63.7032 51.766 66.9532 48.516C69.0626 46.4223 70.4532 44.2192 71.3751 41.4848C72.2813 38.8442 72.6094 35.3598 72.1251 33.7348C71.0313 30.141 67.6407 27.9848 64.0626 28.6098ZM66.9376 32.0004C67.6719 32.3285 68.4688 33.0785 68.8751 33.8129C69.2969 34.5785 69.2344 37.641 68.7813 39.3754C68.0157 42.2348 66.0469 45.3598 63.8438 47.1879C61.1407 49.4379 57.5938 50.766 54.2969 50.7817C52.5001 50.7817 51.0001 49.8442 50.3594 48.2973C50.0313 47.516 50.0626 46.1098 50.4219 45.2973C51.1407 43.7035 52.1407 43.0629 54.3438 42.8129C56.0782 42.6254 57.2344 42.2035 58.2813 41.4223C60.2501 39.9535 60.9063 38.641 61.3907 35.2504C61.8126 32.3598 64.3594 30.8754 66.9376 32.0004Z" fill="#414042"/>
<path d="M64.3593 34.8285C63.1405 36.0472 64.6249 38.016 66.1562 37.1878C67.0155 36.7347 67.1718 35.5003 66.4687 34.7816C65.8749 34.1878 64.9843 34.2191 64.3593 34.8285Z" fill="#414042"/>
<path d="M61.7969 42.4844C60.8594 42.875 60.5626 44.2031 61.2501 44.9219C62.2032 45.9375 63.9063 45.2812 63.9063 43.9062C63.9063 42.8125 62.8126 42.0781 61.7969 42.4844Z" fill="#414042"/>
<path d="M53.5626 44.7812C52.7188 45.2344 52.5313 46.375 53.1876 47.1406C53.5001 47.5 53.6876 47.5781 54.297 47.5781C54.9063 47.5781 55.0938 47.5 55.4063 47.1406C55.8126 46.6719 55.9063 45.8438 55.6251 45.2969C55.4376 44.9531 54.672 44.5312 54.2657 44.5312C54.1095 44.5469 53.797 44.6406 53.5626 44.7812Z" fill="#414042"/>
<path d="M10.2345 35.6719C9.23449 36 8.70324 36.3438 7.98449 37.0469C6.32824 38.7031 5.89074 41.3125 6.90636 43.3906C7.95324 45.5312 11.3126 47.7656 14.6407 48.5312C16.1876 48.8906 19.0157 48.8906 20.5157 48.5312C23.8907 47.7188 27.0939 45.5938 28.2189 43.4375C28.8439 42.2188 28.922 40.3125 28.422 38.9844C27.6876 37.0312 25.797 35.6406 23.6876 35.5C22.0939 35.4062 21.0782 35.7344 19.672 36.7969C17.9689 38.0781 17.047 38.1094 15.5782 36.8906C14.3907 35.9062 13.5626 35.5781 12.1095 35.5156C11.3595 35.4844 10.6095 35.5469 10.2345 35.6719ZM13.1407 38.9688C15.5001 40.6562 15.9532 40.8438 17.6564 40.8438C19.0001 40.8438 20.1876 40.3906 21.3126 39.4688C22.2189 38.7344 22.547 38.5938 23.3126 38.5938C24.6564 38.5938 25.6251 39.6094 25.6251 41.0156C25.6251 41.9062 25.3907 42.3125 24.4376 43.1719C23.4689 44.0469 22.0939 44.8125 20.7032 45.2656C19.6407 45.6094 19.172 45.6719 17.5782 45.6719C15.9689 45.6719 15.5314 45.625 14.4532 45.2656C12.0939 44.4844 9.87511 42.8281 9.54699 41.625C9.35949 40.9062 9.53136 39.9688 9.95324 39.5C10.8126 38.5312 12.2032 38.2969 13.1407 38.9688Z" fill="#414042"/>
<path d="M22.5625 40.1406C22.0938 40.3438 21.5625 41.0625 21.5625 41.5156C21.5625 42.3594 22.3125 43.125 23.125 43.125C24.0156 43.125 24.7969 42.1406 24.6094 41.2656C24.4219 40.4062 23.3438 39.8125 22.5625 40.1406Z" fill="#414042"/>
<path d="M11.8751 40.4376C11.1095 40.8126 10.8126 41.6407 11.172 42.3907C11.6407 43.3751 12.8438 43.5938 13.6095 42.8282C14.8282 41.5938 13.422 39.6563 11.8751 40.4376Z" fill="#414042"/>
<path d="M11.375 51.2344C10.0937 52.3751 11.4687 54.4063 13.0156 53.6719C14.0156 53.2032 14.2031 52.0469 13.4219 51.2657C12.7812 50.6251 12.0781 50.6094 11.375 51.2344Z" fill="#414042"/>
<path d="M23.7657 52.4064C22.8907 52.8908 22.7344 53.9533 23.4219 54.7189C24.0313 55.4064 24.9532 55.4376 25.5782 54.797C26.7969 53.5783 25.2813 51.5626 23.7657 52.4064Z" fill="#414042"/>
<path d="M66.0001 53.8753C65.2032 54.5159 65.1095 55.3909 65.7657 56.1253C66.9064 57.4065 68.9376 56.0315 68.2032 54.4846C67.797 53.6253 66.6876 53.3128 66.0001 53.8753Z" fill="#414042"/>
<path d="M24.9844 64.8125C23.7031 65.9531 25.0625 68 26.6094 67.2656C27.6094 66.7969 27.7969 65.6406 27.0156 64.8594C26.3906 64.2187 25.6719 64.2031 24.9844 64.8125Z" fill="#414042"/>
<path d="M55.1563 66.2034C54.2813 66.5472 53.8907 67.4847 54.2969 68.3284C55.0469 69.9378 57.5 69.1097 57.1094 67.3753C56.9375 66.5472 55.875 65.9222 55.1563 66.2034Z" fill="#414042"/>
</g>
<defs>
<clipPath id="clip0_15_1382">
<rect width="80" height="80" fill="white"/>
</clipPath>
</defs>
</svg>
