<svg width="80" height="80" viewBox="0 0 80 80" fill="none" xmlns="http://www.w3.org/2000/svg">
<path d="M18.2189 7.03123C9.14074 8.17186 2.23449 14.8594 0.375117 24.2969C-0.0155078 26.2812 -0.0311328 30.8125 0.359492 32.6562C1.15637 36.4844 2.81262 39.9375 5.50012 43.4687L6.42199 44.7031L5.92199 45.3281C5.65637 45.6719 5.26574 46.3594 5.06262 46.8437L4.68762 47.7344V56.3594C4.68762 66.3437 4.64074 65.9687 6.18762 67.6406C7.37512 68.9375 8.54699 69.4375 10.3126 69.4531C11.4845 69.4531 11.7657 69.3906 12.7189 68.9375C13.7189 68.4687 13.8282 68.4531 13.9532 68.7031C14.3751 69.4531 15.4532 70.3594 16.5314 70.9062C17.6876 71.4687 17.7657 71.4844 19.3751 71.4687C20.797 71.4687 21.1251 71.4219 21.8751 71.0625C23.6251 70.25 24.9376 68.7969 25.4689 67.0781C25.7032 66.2969 25.7814 65.625 25.7814 64.2031C25.7814 62.7812 25.8282 62.3437 25.9845 62.3437C26.1876 62.3437 32.3439 67.2344 36.9376 71.0469C39.2814 72.9844 39.7032 73.2344 40.3751 73.0625C40.5782 73.0156 41.7814 72.1094 43.0626 71.0469C47.6564 67.2344 53.8126 62.3437 54.0157 62.3437C54.172 62.3437 54.2189 62.7812 54.2189 64.2031C54.2189 65.625 54.297 66.2969 54.5314 67.0781C55.0626 68.7969 56.3751 70.25 58.1251 71.0625C58.8751 71.4219 59.2032 71.4687 60.6251 71.4687C62.2345 71.4844 62.3126 71.4687 63.4689 70.9062C64.547 70.3594 65.6251 69.4531 66.047 68.7031C66.172 68.4531 66.2814 68.4687 67.2814 68.9375C68.2345 69.3906 68.5157 69.4531 69.6876 69.4531C71.4532 69.4375 72.6251 68.9375 73.8126 67.6406C75.3595 65.9687 75.3126 66.3437 75.3126 56.3594V47.7344L74.9376 46.8437C74.7345 46.3594 74.3439 45.6719 74.0782 45.3281L73.5782 44.7031L74.5001 43.4687C78.4845 38.2344 80.2189 33.1562 79.9532 27.5C79.6876 21.9219 77.6095 16.9219 74.0314 13.1875C71.0626 10.0937 67.7501 8.24998 63.4376 7.31248C61.4532 6.87498 57.1251 6.84373 55.2345 7.24998C52.547 7.82811 50.0314 8.87498 48.047 10.2031C45.1407 12.1562 42.4532 15.0937 40.672 18.2344C40.3751 18.7812 40.0782 19.2187 40.0001 19.2187C39.922 19.2187 39.6251 18.7812 39.3282 18.2344C37.547 15.0937 34.8595 12.1562 31.9532 10.2031C29.9376 8.85936 27.3595 7.79686 24.7657 7.26561C23.297 6.96873 19.7501 6.84373 18.2189 7.03123ZM23.4376 10.2187C27.1095 10.7812 29.9532 12.1875 32.7189 14.8437C35.047 17.0781 36.8595 19.7656 38.1095 22.8437C38.7501 24.4062 39.2032 24.8906 40.0001 24.8906C40.8126 24.8906 41.2501 24.4062 41.9064 22.8125C43.8439 18.0469 47.3595 13.9844 51.3282 11.9219C58.0157 8.43748 66.5782 9.84373 71.7345 15.2656C75.2345 18.9219 77.0782 24.0625 76.8126 29.375C76.5939 34.0156 74.9376 37.9687 71.3439 42.4375L70.7032 43.2344L69.4532 43.3125C68.4532 43.3594 68.0001 43.4687 67.2501 43.8437L66.3126 44.3281L65.4064 43.3437C64.7814 42.6406 64.2032 42.2031 63.4689 41.8437C62.4845 41.3594 62.3282 41.3281 60.7032 41.3281C59.0939 41.3281 58.922 41.3594 57.9376 41.8281C56.5626 42.4687 55.4376 43.5937 54.797 44.9687C54.3282 45.9687 54.297 46.125 54.2501 48.2344L54.1876 50.4687H50.3282C46.922 50.4687 46.4532 50.5 46.1564 50.75C45.3439 51.3906 45.297 52.4531 46.0314 53.1406C46.422 53.5156 46.4532 53.5156 50.3282 53.5625L54.2189 53.6094V56.4062V59.2187H40.0001H25.7814V56.4062V53.6094L29.672 53.5625C33.5314 53.5156 33.5782 53.5156 33.9689 53.1406C34.4532 52.6719 34.6251 52 34.3751 51.3906C34.0157 50.5312 33.672 50.4687 29.5626 50.4687H25.8126L25.7657 48.2344C25.7032 46.0625 25.6876 45.9687 25.172 44.9219C24.4845 43.5312 23.4064 42.4687 22.0626 41.8281C21.0782 41.3594 20.9064 41.3281 19.297 41.3281C17.672 41.3281 17.5157 41.3594 16.5314 41.8437C15.797 42.2031 15.2189 42.6406 14.5939 43.3437L13.6876 44.3281L12.7501 43.8437C12.0001 43.4687 11.547 43.3594 10.547 43.3125L9.29699 43.25L8.46887 42.2031C4.89074 37.7344 3.12512 33.2187 3.12512 28.5312C3.12512 25.4844 3.96887 21.9687 5.34387 19.3281C8.79699 12.7031 15.9532 9.09373 23.4376 10.2187ZM20.672 44.5937C21.3439 44.875 22.0157 45.5625 22.3595 46.3281C22.6251 46.9062 22.6564 47.5625 22.6564 56.4062C22.6564 65.2187 22.6251 65.9062 22.3595 66.4844C21.2501 68.9375 17.8282 69.1094 16.4532 66.7656L16.0157 66.0156V56.4062C16.0157 46.875 16.0157 46.7969 16.3595 46.1719C16.7657 45.4062 17.2501 44.9375 17.9689 44.625C18.6564 44.3281 20.0157 44.3125 20.672 44.5937ZM62.0001 44.6094C62.7345 44.9219 63.2189 45.3906 63.6407 46.1719C63.9845 46.7969 63.9845 46.875 63.9845 56.4062V66.0156L63.547 66.7656C62.4689 68.6094 60.0782 69 58.4845 67.6094C57.3126 66.5781 57.3439 66.9844 57.3439 56.4062C57.3439 47.4062 57.3595 46.9219 57.6564 46.2812C58.0001 45.5312 58.6095 44.9062 59.297 44.5937C59.9376 44.3125 61.297 44.3281 62.0001 44.6094ZM11.6876 46.8281C11.922 47 12.2657 47.375 12.4689 47.6562L12.8126 48.1719V56.3594C12.8126 65.4375 12.8595 65.0625 11.7657 65.8906C11.297 66.25 11.047 66.3281 10.297 66.3281C9.28137 66.3281 8.76574 66.0469 8.17199 65.1562L7.81262 64.6406V56.4531C7.81262 47.6562 7.79699 47.8437 8.62512 47.0781C8.81262 46.8906 9.15637 46.6562 9.37512 46.5781C9.95324 46.3281 11.2032 46.4687 11.6876 46.8281ZM71.0626 46.8281C71.297 47 71.6407 47.375 71.8439 47.6562L72.1876 48.1719V56.4062V64.6406L71.8439 65.1562C71.2345 66.0469 70.7189 66.3281 69.6876 66.3281C68.6564 66.3281 68.1407 66.0469 67.547 65.1562L67.1876 64.6406V56.4531C67.1876 47.6562 67.172 47.8437 68.0001 47.0781C68.1876 46.8906 68.5314 46.6562 68.7501 46.5781C69.3282 46.3281 70.5782 46.4687 71.0626 46.8281ZM48.672 62.4687C48.5782 62.5469 47.3907 63.5156 46.0157 64.625C44.6407 65.7187 42.7189 67.2812 41.7657 68.0781L40.0001 69.5469L38.2501 68.0781C37.2814 67.2812 35.3595 65.7187 33.9845 64.6094C32.6095 63.5156 31.422 62.5469 31.3439 62.4687C31.2501 62.4062 35.1564 62.3437 40.0001 62.3437C44.8439 62.3437 48.7501 62.4062 48.672 62.4687Z" fill="#414042"/>
<path d="M39.1251 50.7498C38.3438 51.3748 38.2657 52.453 38.9532 53.0936C39.4688 53.5623 40.047 53.6561 40.672 53.3592C42.1407 52.6717 41.672 50.4686 40.047 50.4686C39.7188 50.4686 39.297 50.5936 39.1251 50.7498Z" fill="#414042"/>
</svg>
