<svg width="80" height="80" viewBox="0 0 80 80" fill="none" xmlns="http://www.w3.org/2000/svg">
<g clip-path="url(#clip0_15_1411)">
<path d="M38.6719 0.202896C36.0781 1.06227 34.6719 3.99977 35.7031 6.4529C36.0781 7.34352 36.8125 8.18727 37.6406 8.67165L38.4375 9.1404L38.4062 10.3904L38.3594 11.6248L36.7187 11.8279C34.7656 12.0466 33.7656 12.2341 32.2812 12.6716C28.625 13.7185 24.9687 15.6248 22.1406 17.9373L21.0781 18.7966L19.3437 17.0779L17.625 15.3591L17.8594 14.906C17.9844 14.656 18.1719 14.031 18.2812 13.531C18.7969 10.9841 17.4531 8.34352 15.0312 7.15602C14.0781 6.68727 13.875 6.6404 12.5 6.6404C11.1562 6.6404 10.9219 6.68727 9.99998 7.12477C6.67186 8.71852 5.57811 12.6716 7.60936 15.7498C9.09373 17.9841 12.0781 18.9373 14.5937 17.9685L15.5 17.6248L17.125 19.2341C18.0156 20.1248 18.75 20.9216 18.75 20.9998C18.75 21.0779 18.375 21.6091 17.9062 22.1716C14.4844 26.3748 12.2656 31.781 11.75 37.1873L11.6406 38.3591L10.3906 38.406L9.14061 38.4529L8.76561 37.7341C8.03123 36.3591 6.62498 35.4685 4.99998 35.3591C2.51561 35.1873 0.343732 36.9841 0.0468574 39.4998C-0.343768 42.8904 3.28123 45.6248 6.45311 44.2966C7.34373 43.9216 8.18748 43.1873 8.67186 42.3591L9.14061 41.5623L10.3906 41.5935L11.6406 41.6404L11.6875 42.2654C11.7656 43.4841 12.2031 46.031 12.5937 47.4216C13.6562 51.2341 15.5312 54.9216 17.9375 57.8591L18.7969 58.9216L17.0937 60.6404L15.375 62.3591L14.6094 61.9998C13.5312 61.5154 11.5625 61.531 10.2812 62.0154C9.03123 62.4998 7.79686 63.6716 7.15623 64.9685C6.68748 65.9216 6.64061 66.1248 6.64061 67.4998C6.64061 68.7966 6.68748 69.0935 7.07811 69.9216C8.64061 73.281 12.6719 74.4216 15.75 72.3904C17.9844 70.906 18.9375 67.9216 17.9687 65.406L17.625 64.4998L19.2344 62.8748C20.125 61.9841 20.9219 61.2498 21 61.2498C21.0781 61.2498 21.6094 61.6248 22.1719 62.0935C26.375 65.5154 31.7812 67.7341 37.1875 68.2498L38.3594 68.3591L38.4062 69.6091L38.4531 70.8591L37.7344 71.2341C36.3594 71.9685 35.4687 73.3748 35.3594 74.9998C35.1875 77.4841 36.9844 79.656 39.5 79.9529C42.8906 80.3435 45.625 76.7185 44.2969 73.5466C43.9219 72.656 43.1875 71.8123 42.3594 71.3279L41.5625 70.8591L41.5937 69.6091L41.6406 68.3748L43.2812 68.1716C45.2344 67.9529 46.2344 67.7654 47.7187 67.3279C51.375 66.281 55.0312 64.3748 57.8594 62.0623L58.9219 61.2029L60.6562 62.9216L62.375 64.6404L62.1406 65.0935C62.0156 65.3435 61.8281 65.9685 61.7187 66.4685C61.2031 69.0154 62.5469 71.656 64.9687 72.8435C65.9219 73.3123 66.125 73.3591 67.5 73.3591C68.7969 73.3591 69.0937 73.3123 69.9219 72.9216C73.2969 71.3435 74.4375 67.3435 72.3906 64.2498C70.9062 62.0154 67.9219 61.0623 65.4062 62.031L64.5 62.3748L62.875 60.7654C61.9844 59.8748 61.25 59.0779 61.25 58.9998C61.25 58.9216 61.625 58.3904 62.0937 57.8279C65.5156 53.6248 67.7344 48.2185 68.25 42.8123L68.3594 41.6404L69.6094 41.5935L70.8594 41.5466L71.2344 42.2654C71.9687 43.6404 73.375 44.531 75 44.6404C77.4844 44.8123 79.6562 43.0154 79.9531 40.4998C80.3437 37.1091 76.7187 34.3748 73.5469 35.7029C72.6562 36.0779 71.8125 36.8123 71.3281 37.6404L70.8594 38.4373L69.6094 38.406L68.375 38.3591L68.1719 36.7185C67.9531 34.7654 67.7656 33.7654 67.3281 32.281C66.2812 28.6248 64.375 24.9685 62.0625 22.1404L61.2031 21.0779L62.9062 19.3591L64.625 17.6404L65.3906 17.9998C66.4687 18.4841 68.4375 18.4685 69.7187 17.9841C70.9687 17.4998 72.2031 16.3279 72.8437 15.031C73.3125 14.0779 73.3594 13.8748 73.3594 12.4998C73.3594 11.2029 73.2969 10.8904 72.9219 10.0623C71.375 6.73415 67.3125 5.5779 64.25 7.60915C62.0156 9.09352 61.0625 12.0779 62.0312 14.5935L62.375 15.4998L60.7656 17.1248C59.875 18.0154 59.0781 18.7498 59 18.7498C58.9219 18.7498 58.3906 18.3748 57.8281 17.906C53.625 14.4841 48.2187 12.2654 42.8125 11.7498L41.6406 11.6404L41.5937 10.3904L41.5469 9.1404L42.2656 8.7654C45.5156 7.04665 45.4219 2.15602 42.1094 0.531021C41.0937 0.0466461 39.6094 -0.0939789 38.6719 0.202896ZM40.7656 3.34352C41.8906 3.93727 41.7656 5.68727 40.5625 6.09352C39.5 6.43727 38.5156 5.78102 38.5156 4.68727C38.5156 3.49977 39.7031 2.79665 40.7656 3.34352ZM14.1406 10.2185C16.3125 11.8904 15.125 15.2498 12.3906 15.2029C9.51561 15.1716 8.70311 11.2966 11.2656 9.9529C12.0625 9.53102 13.3906 9.65602 14.1406 10.2185ZM69.1875 10.2654C70.0312 10.9373 70.3437 11.6091 70.2656 12.6873C70.0937 15.4529 66.5 16.2498 65.125 13.8279C64.6406 12.9529 64.6562 11.7654 65.2031 10.9685C66.0781 9.6404 67.9844 9.29665 69.1875 10.2654ZM44.1719 15.0779C54.7031 16.781 63.1406 25.2498 64.9531 35.9373C65.2812 37.9216 65.2812 42.0779 64.9531 44.0623C63.125 54.7966 54.7969 63.1248 44.0625 64.9529C42.0781 65.281 37.9219 65.281 35.9375 64.9529C25.2031 63.1248 16.875 54.7966 15.0469 44.0623C14.7187 42.0779 14.7187 37.9216 15.0469 35.9373C16.6875 26.281 23.6719 18.4216 33.0469 15.7029C34.375 15.3279 36.5625 14.9216 38.125 14.781C39.3125 14.6716 42.7031 14.8435 44.1719 15.0779ZM5.46873 38.6716C5.96873 38.9373 6.31248 39.7654 6.17186 40.3591C5.90623 41.4216 4.48436 41.8435 3.68748 41.1091C2.32811 39.8435 3.81248 37.8123 5.46873 38.6716ZM76.3594 38.9216C77.0781 39.6091 76.9375 40.8904 76.0781 41.3279C75.1875 41.7966 74.2031 41.4373 73.9062 40.5466C73.3906 38.9998 75.1719 37.8123 76.3594 38.9216ZM14 65.1873C14.7656 65.7185 15.2187 66.6248 15.2031 67.6091C15.1719 70.4841 11.2969 71.2966 9.95311 68.7341C9.53123 67.9373 9.65623 66.6091 10.2187 65.8591C11.125 64.6873 12.8281 64.3904 14 65.1873ZM69.0781 65.2341C70.3594 66.0623 70.6875 67.9998 69.7344 69.1873C69.0625 70.031 68.375 70.3435 67.3125 70.2654C66.2187 70.2029 65.4062 69.6404 64.9687 68.6248C63.8594 66.1091 66.75 63.7341 69.0781 65.2341ZM41.0937 74.2966C41.8906 75.0935 41.4219 76.5466 40.2812 76.7966C39.6719 76.9373 38.9375 76.6091 38.6719 76.0779C37.8281 74.4529 39.7969 73.0154 41.0937 74.2966Z" fill="#414042"/>
<path d="M35.4844 22.5935C35.2813 22.7342 35.0313 23.0935 34.9063 23.3748C34.6094 24.0779 34.9219 24.8748 35.6407 25.2342C36.625 25.7498 37.8125 25.0154 37.8125 23.906C37.8125 23.2498 37.5782 22.8592 37.0313 22.5779C36.4375 22.281 35.9375 22.281 35.4844 22.5935Z" fill="#414042"/>
<path d="M49.25 23.281C45.8437 23.7967 43.3125 27.3435 43.9062 30.7498C44.125 31.9998 44.25 32.3435 44.9531 33.3904C46.4062 35.5935 49.3906 36.7185 51.9531 36.031C53.7656 35.5467 55.4687 34.1717 56.1875 32.5779C58.4219 27.7185 54.5 22.4842 49.25 23.281ZM51.1718 26.4217C52.5781 26.781 53.7344 28.2498 53.75 29.7029C53.75 30.6873 53.0781 31.9842 52.25 32.5467C51.2812 33.2185 49.9687 33.2967 48.8437 32.7498C45.9375 31.3279 46.4375 27.1717 49.6093 26.3904C50.2968 26.2342 50.4218 26.2342 51.1718 26.4217Z" fill="#414042"/>
<path d="M23.8905 25.8434C22.7499 26.2809 22.078 26.7184 21.4218 27.4215C18.4218 30.6715 20.2655 35.9996 24.6249 36.7028C26.3436 36.9684 28.0155 36.4684 29.2811 35.3121C32.2186 32.609 31.4686 27.8121 27.8436 26.1246C26.7811 25.6246 24.8124 25.484 23.8905 25.8434ZM26.6561 28.9996C27.3905 29.3434 27.8436 30.0465 27.9374 30.9528C28.0155 31.8746 27.7811 32.5309 27.1561 33.0465C24.8593 34.984 21.7655 31.984 23.6249 29.609C24.2655 28.7809 25.6249 28.5153 26.6561 28.9996Z" fill="#414042"/>
<path d="M36.7813 27.4998C36.2969 27.6873 35.9375 28.2655 35.9375 28.8592C35.9375 29.5155 36.8125 33.1717 37.1094 33.7498C37.4219 34.3592 38.2656 34.6092 39 34.2967C39.5938 34.0467 39.8438 33.6561 39.8438 32.9217C39.8438 32.328 39.1563 29.078 38.875 28.3905C38.5313 27.5155 37.6563 27.1405 36.7813 27.4998Z" fill="#414042"/>
<path d="M39.4531 38.578C38.5 38.9686 38.2031 40.2655 38.8906 40.9999C40.125 42.3124 42.125 40.9374 41.375 39.2967C41.0625 38.6092 40.1875 38.2811 39.4531 38.578Z" fill="#414042"/>
<path d="M59.7032 38.656C58.8282 39.1404 58.6719 40.2029 59.3594 40.9685C60.5313 42.281 62.5625 40.9216 61.7969 39.3279C61.4063 38.4997 60.5 38.2185 59.7032 38.656Z" fill="#414042"/>
<path d="M23.2031 42.2968C22.75 42.4061 22.2343 42.9374 22.1093 43.3905C21.9687 43.9843 22.3125 44.8124 22.8125 45.078C23.6875 45.5311 24.5468 45.2655 24.9843 44.4218C25.5468 43.328 24.4218 41.9843 23.2031 42.2968Z" fill="#414042"/>
<path d="M50.6094 47.234C48.8594 47.9527 47.6875 49.3277 47.2344 51.1871C46.7813 53.0309 47.3438 54.9684 48.75 56.3746C50.6563 58.2965 53.8125 58.5152 56.0469 56.8746C57.3125 55.9371 58.2813 54.0152 58.2813 52.4215C58.2813 50.8746 57.3438 48.9527 56.125 48.0309C54.5938 46.859 52.3281 46.5309 50.6094 47.234ZM53.9063 50.2965C54.5313 50.6246 55.1563 51.6871 55.1563 52.4215C55.1563 53.1559 54.5313 54.2184 53.9063 54.5465C53.1406 54.9527 52.0469 54.9371 51.4063 54.484C50.5469 53.9059 50.2344 53.359 50.2344 52.4215C50.2344 51.484 50.5469 50.9371 51.4063 50.3434C52.0469 49.9059 53.1406 49.8902 53.9063 50.2965Z" fill="#414042"/>
<path d="M29.4531 49.2809C26.0781 50.1091 24.7968 54.2653 27.1093 56.8434C29.4062 59.3903 33.375 58.7809 34.7968 55.6559C36.4062 52.1716 33.1875 48.3434 29.4531 49.2809ZM31.1875 52.4216C32.2187 52.8434 32.4062 54.1872 31.5312 54.9216C30.5312 55.7653 29.0625 55.0934 29.0625 53.7966C29.0781 53.1091 29.2968 52.7653 29.9375 52.4216C30.5 52.1403 30.5156 52.1403 31.1875 52.4216Z" fill="#414042"/>
<path d="M42.0937 55.125C40.9062 56.0781 41.4687 57.8594 42.9687 57.8594C44.0781 57.8594 44.7968 56.7969 44.3749 55.7656C44.0156 54.9219 42.7656 54.5781 42.0937 55.125Z" fill="#414042"/>
</g>
<defs>
<clipPath id="clip0_15_1411">
<rect width="80" height="80" fill="white"/>
</clipPath>
</defs>
</svg>
