<svg width="24" height="25" viewBox="0 0 24 25" fill="none" xmlns="http://www.w3.org/2000/svg">
<path opacity="0.4" d="M2 13.47V7.49C2 4.73 4.24 2.5 7 2.5H17C19.76 2.5 22 4.73 22 7.49V14.47C22 17.22 19.76 19.45 17 19.45H15.5C15.19 19.45 14.89 19.6 14.7 19.85L13.2 21.84C12.54 22.72 11.46 22.72 10.8 21.84L9.3 19.85C9.14 19.63 8.78 19.45 8.5 19.45H7C4.24 19.45 2 17.22 2 14.47V13.47Z" fill="#2A332E"/>
<path d="M12 12.5C11.44 12.5 11 12.05 11 11.5C11 10.95 11.45 10.5 12 10.5C12.55 10.5 13 10.95 13 11.5C13 12.05 12.56 12.5 12 12.5Z" fill="#2A332E"/>
<path d="M16 12.5C15.44 12.5 15 12.05 15 11.5C15 10.95 15.45 10.5 16 10.5C16.55 10.5 17 10.95 17 11.5C17 12.05 16.56 12.5 16 12.5Z" fill="#2A332E"/>
<path d="M8 12.5C7.44 12.5 7 12.05 7 11.5C7 10.95 7.45 10.5 8 10.5C8.55 10.5 9 10.95 9 11.5C9 12.05 8.56 12.5 8 12.5Z" fill="#2A332E"/>
</svg>
