<svg width="64" height="64" viewBox="0 0 64 64" fill="none" xmlns="http://www.w3.org/2000/svg">
<path d="M0 64L4.49867 47.5653C1.72267 42.7547 0.264 37.3013 0.266667 31.7093C0.274667 14.2267 14.5013 0 31.9813 0C40.464 0.00266667 48.4267 3.30667 54.416 9.30133C60.4027 15.296 63.6987 23.264 63.696 31.7387C63.688 49.224 49.4613 63.4507 31.9813 63.4507C26.6747 63.448 21.4453 62.1173 16.8133 59.5893L0 64ZM17.592 53.848C22.0613 56.5013 26.328 58.0907 31.9707 58.0933C46.4987 58.0933 58.3333 46.2693 58.3413 31.7333C58.3467 17.168 46.568 5.36 31.992 5.35467C17.4533 5.35467 5.62667 17.1787 5.62133 31.712C5.61867 37.6453 7.35733 42.088 10.2773 46.736L7.61333 56.464L17.592 53.848ZM47.9573 39.2773C47.76 38.9467 47.232 38.7493 46.4373 38.352C45.6453 37.9547 41.7493 36.0373 41.0213 35.7733C40.296 35.5093 39.768 35.376 39.2373 36.1707C38.7093 36.9627 37.1893 38.7493 36.728 39.2773C36.2667 39.8053 35.8027 39.872 35.0107 39.4747C34.2187 39.0773 31.664 38.2427 28.6373 35.5413C26.2827 33.44 24.6907 30.8453 24.2293 30.0507C23.768 29.2587 24.1813 28.8293 24.576 28.4347C24.9333 28.08 25.368 27.5093 25.7653 27.0453C26.168 26.5867 26.2987 26.256 26.5653 25.7253C26.8293 25.1973 26.6987 24.7333 26.4987 24.336C26.2987 23.9413 24.7147 20.04 24.056 18.4533C23.4107 16.9093 22.7573 17.1173 22.272 17.0933L20.752 17.0667C20.224 17.0667 19.3653 17.264 18.64 18.0587C17.9147 18.8533 15.8667 20.768 15.8667 24.6693C15.8667 28.5707 18.7067 32.3387 19.1013 32.8667C19.4987 33.3947 24.688 41.4 32.6373 44.832C34.528 45.648 36.0053 46.136 37.1547 46.5013C39.0533 47.104 40.7813 47.0187 42.1467 46.816C43.6693 46.5893 46.8347 44.8987 47.496 43.048C48.1573 41.1947 48.1573 39.608 47.9573 39.2773Z" fill="white"/>
</svg>
