<svg width="40" height="40" viewBox="0 0 40 40" fill="none" xmlns="http://www.w3.org/2000/svg">
<g clip-path="url(#clip0_225_496)">
<path d="M36.49 0.538949C36.4367 0.343152 36.3041 0.178413 36.1241 0.0846357C35.7689 -0.103321 35.3286 0.032269 35.1405 0.387478C35.14 0.388382 35.1395 0.389287 35.1391 0.390192C35.1391 0.410294 31.4523 7.56272 20.1347 8.80906C18.6584 8.96657 17.2153 9.35173 15.8569 9.95088C13.4254 11.008 11.4173 12.8477 10.1518 15.1775C8.97043 17.3659 8.48114 19.8614 8.7487 22.3339C8.9458 24.1363 9.54777 25.8709 10.5097 27.4078C8.49943 28.8511 2.12296 33.8405 1.54803 39.1958C1.50581 39.5954 1.79569 39.9537 2.19533 39.9959C2.59506 40.0381 2.95318 39.7482 2.9954 39.3486C3.52208 34.5682 9.50455 29.9326 11.37 28.5898C13.6095 31.3398 16.9625 32.8917 20.5609 33.145C22.9827 33.3013 25.4074 32.8883 27.6409 31.9389C30.0655 30.9216 32.2068 29.3308 33.8807 27.3032C38.1947 22.0766 40.2491 13.2919 36.49 0.538949ZM11.7882 26.6881C11.5108 26.2512 11.2662 25.7943 11.0564 25.3211C10.615 24.3228 10.3303 23.2624 10.2122 22.1771C9.9659 19.9995 10.3864 17.7984 11.4183 15.865C12.5336 13.8152 14.3027 12.1975 16.4439 11.2696C17.668 10.7366 18.9672 10.3962 20.2955 10.2605C27.7655 9.45636 32.1599 6.13143 34.4275 3.71914C33.0952 8.10538 30.8014 12.1393 27.7133 15.5273L27.271 11.0726C27.2485 10.6713 26.905 10.3643 26.5037 10.3868C26.1025 10.4093 25.7954 10.7529 25.8179 11.1541C25.819 11.1739 25.8209 11.1937 25.8237 11.2133L26.3905 16.9385C23.0093 20.3679 18.3094 23.8135 11.7882 26.6881ZM32.7549 26.3705V26.3745C31.234 28.2262 29.2858 29.6806 27.078 30.6121C25.0478 31.4701 22.8443 31.8391 20.6453 31.6896C17.584 31.5345 14.7113 30.1639 12.6646 27.8822C15.0631 26.8209 17.3821 25.5888 19.604 24.1954L25.9925 25.4016C26.3895 25.4638 26.7618 25.1923 26.824 24.7953C26.8841 24.4123 26.6333 24.0495 26.2538 23.9703L21.3448 23.0415C23.6115 21.4848 25.7214 19.7115 27.6449 17.7466C27.6802 17.7162 27.7125 17.6826 27.7414 17.6461C32.8153 12.3632 34.9743 7.13655 35.8748 3.92017C38.3595 14.5181 36.4578 21.8917 32.7549 26.3705Z" fill="#35AE5D"/>
</g>
<defs>
<clipPath id="clip0_225_496">
<rect width="40" height="40" fill="white"/>
</clipPath>
</defs>
</svg>
