<svg width="30" height="36" viewBox="0 0 30 36" fill="none" xmlns="http://www.w3.org/2000/svg">
<path d="M29.3824 31.201L27.3108 7.85427C27.2735 7.39226 26.886 7.04202 26.4166 7.04202H22.0498C22.0423 3.15959 18.8827 0 15.0003 0C11.1179 0 7.95826 3.15959 7.95081 7.04202H3.58401C3.12199 7.04202 2.7345 7.39226 2.68979 7.85427L0.618164 31.201C0.618164 31.2308 0.618164 31.2532 0.618164 31.283C0.618164 33.8837 3.01022 36 5.94625 36H24.0543C26.9903 36 29.3824 33.8837 29.3824 31.283C29.3824 31.2532 29.3824 31.2308 29.3824 31.201ZM15.0003 1.78845C17.8991 1.78845 20.2539 4.14324 20.2613 7.04202H9.73926C9.74671 4.14324 12.1015 1.78845 15.0003 1.78845ZM24.0543 34.2041H5.94625C4.00877 34.2041 2.42897 32.9149 2.40661 31.3128L4.40372 8.83047H7.95081V11.9677C7.95081 12.4595 8.35321 12.8619 8.84503 12.8619C9.33686 12.8619 9.73926 12.4595 9.73926 11.9677V8.83047H20.2613V11.9677C20.2613 12.4595 20.6637 12.8619 21.1555 12.8619C21.6474 12.8619 22.0498 12.4595 22.0498 11.9677V8.83047H25.5968L27.5939 31.3202C27.5716 32.9149 25.9918 34.2041 24.0543 34.2041Z" fill="#35AE5D"/>
<path d="M18.7188 18.6148L13.4428 23.8907L11.2893 21.7371C10.939 21.3869 10.3727 21.3869 10.0224 21.7371C9.67221 22.0873 9.67221 22.6537 10.0224 23.0039L12.8094 25.7909C12.9808 25.9623 13.2118 26.0517 13.4428 26.0517C13.6739 26.0517 13.8974 25.9623 14.0763 25.7909L19.9856 19.8816C20.3358 19.5313 20.3358 18.965 19.9856 18.6148C19.6353 18.272 19.069 18.272 18.7188 18.6148Z" fill="#35AE5D"/>
</svg>
