<svg width="40" height="40" viewBox="0 0 40 40" fill="none" xmlns="http://www.w3.org/2000/svg">
<path d="M32.7021 26.3043C31.7247 26.3043 30.7962 26.6871 30.0957 27.3794C29.3952 28.0799 29.0043 28.9921 29.0043 29.9695C29.0043 30.9469 29.3871 31.8591 30.0957 32.5596C30.8043 33.2519 31.7247 33.6348 32.7021 33.6348C34.7058 33.6348 36.3348 31.9895 36.3348 29.9695C36.3348 27.9496 34.7058 26.3043 32.7021 26.3043ZM32.7021 32.0058C31.5781 32.0058 30.6333 31.0772 30.6333 29.9695C30.6333 28.8618 31.5781 27.9333 32.7021 27.9333C33.8098 27.9333 34.7058 28.8455 34.7058 29.9695C34.7058 31.0935 33.8098 32.0058 32.7021 32.0058ZM33.6469 14.0949C33.5003 13.9565 33.3048 13.8832 33.1012 13.8832H28.9228C28.4749 13.8832 28.1083 14.2497 28.1083 14.6977V21.3766C28.1083 21.8245 28.4749 22.1911 28.9228 22.1911H35.5528C36.0008 22.1911 36.3673 21.8245 36.3673 21.3766V16.905C36.3673 16.6769 36.2696 16.457 36.0986 16.3022L33.6469 14.0949ZM34.7383 20.5621H29.7373V15.504H32.7835L34.7383 17.2633V20.5621ZM12.8121 26.3043C11.8347 26.3043 10.9061 26.6871 10.2057 27.3794C9.50519 28.0799 9.11423 28.9921 9.11423 29.9695C9.11423 30.9469 9.49705 31.8591 10.2057 32.5596C10.9143 33.2519 11.8347 33.6348 12.8121 33.6348C14.8157 33.6348 16.4447 31.9895 16.4447 29.9695C16.4447 27.9496 14.8157 26.3043 12.8121 26.3043ZM12.8121 32.0058C11.688 32.0058 10.7432 31.0772 10.7432 29.9695C10.7432 28.8618 11.688 27.9333 12.8121 27.9333C13.9198 27.9333 14.8157 28.8455 14.8157 29.9695C14.8157 31.0935 13.9198 32.0058 12.8121 32.0058ZM7.37935 27.3061H5.74221V25.1395C5.74221 24.6916 5.37569 24.325 4.92771 24.325C4.47974 24.325 4.11322 24.6916 4.11322 25.1395V28.1206C4.11322 28.5686 4.47974 28.9351 4.92771 28.9351H7.37935C7.82733 28.9351 8.19385 28.5686 8.19385 28.1206C8.19385 27.6726 7.82733 27.3061 7.37935 27.3061ZM11.5089 22.8671C11.5089 22.4191 11.1423 22.0526 10.6944 22.0526H0.814498C0.366524 22.0526 0 22.4191 0 22.8671C0 23.3151 0.366524 23.6816 0.814498 23.6816H10.6944C11.1423 23.6816 11.5089 23.3232 11.5089 22.8671ZM2.46793 19.9267L12.3478 19.9838C12.7958 19.9838 13.1623 19.6254 13.1704 19.1774C13.1786 18.7213 12.8121 18.3548 12.3641 18.3548L2.48422 18.2978C2.47607 18.2978 2.47607 18.2978 2.47607 18.2978C2.0281 18.2978 1.66158 18.6561 1.66158 19.1041C1.65343 19.5602 2.01996 19.9267 2.46793 19.9267ZM4.12951 16.2289H14.0094C14.4573 16.2289 14.8239 15.8624 14.8239 15.4144C14.8239 14.9665 14.4573 14.5999 14.0094 14.5999H4.12951C3.68153 14.5999 3.31501 14.9665 3.31501 15.4144C3.31501 15.8624 3.68153 16.2289 4.12951 16.2289ZM39.6986 15.1294L33.8668 10.2994C33.7202 10.1772 33.541 10.112 33.3456 10.112H26.4875V7.17985C26.4875 6.73188 26.121 6.36536 25.673 6.36536H4.92771C4.47974 6.36536 4.11322 6.73188 4.11322 7.17985V13.142C4.11322 13.59 4.47974 13.9565 4.92771 13.9565C5.37569 13.9565 5.74221 13.59 5.74221 13.142V7.99435H24.8666V27.3061H18.1877C17.7398 27.3061 17.3732 27.6726 17.3732 28.1206C17.3732 28.5686 17.7398 28.9351 18.1877 28.9351H28.1328C28.5807 28.9351 28.9473 28.5686 28.9473 28.1206C28.9473 27.6726 28.5807 27.3061 28.1328 27.3061H26.4956V11.741H33.0605L38.371 16.1393L38.314 27.2898H37.4669C37.0189 27.2898 36.6524 27.6563 36.6524 28.1043C36.6524 28.5523 37.0189 28.9188 37.4669 28.9188H39.1203C39.5683 28.9188 39.9348 28.5604 39.9348 28.1125L40 15.7647C39.9919 15.5203 39.886 15.2841 39.6986 15.1294Z" fill="#35AE5D"/>
</svg>
