<svg width="40" height="40" viewBox="0 0 40 40" fill="none" xmlns="http://www.w3.org/2000/svg">
<g clip-path="url(#clip0_225_514)">
<path d="M31.1384 17.3701C30.9781 16.8755 30.5586 16.5219 30.0439 16.4472L23.9436 15.5607L21.2156 10.0334C20.9859 9.56686 20.52 9.2771 19.9999 9.2771C19.4798 9.2771 19.0139 9.56686 18.7843 10.033L16.056 15.5607L9.95566 16.4472C9.44137 16.5219 9.02199 16.8753 8.86113 17.37C8.70082 17.8639 8.83215 18.3962 9.20426 18.7595L13.6187 23.0623L12.5766 29.1378C12.4886 29.6501 12.695 30.1582 13.1157 30.4639C13.3533 30.6367 13.6314 30.7245 13.9114 30.7244C14.1268 30.7244 14.3434 30.6724 14.5435 30.5673L19.9999 27.6987L25.4559 30.5673C25.6496 30.6691 25.8677 30.7229 26.0865 30.7229C26.375 30.7229 26.6505 30.6333 26.8837 30.4639C27.3036 30.1585 27.5104 29.6506 27.4228 29.1381L27.0106 26.7344C26.9515 26.3906 26.6247 26.1597 26.2813 26.2187C25.9375 26.2776 25.7066 26.6042 25.7656 26.948L26.1778 29.3512C26.1836 29.3859 26.1691 29.4217 26.1409 29.4422C26.099 29.4727 26.0686 29.4624 26.0434 29.4491L20.2934 26.4262C20.1095 26.3295 19.8898 26.3294 19.7056 26.4262L13.955 29.4493C13.9243 29.4655 13.8861 29.4626 13.8579 29.4422C13.8293 29.4213 13.8151 29.3868 13.8211 29.3516L14.9194 22.9486C14.9546 22.7436 14.8868 22.5346 14.7379 22.3895L10.0859 17.8553C10.0607 17.8307 10.0514 17.7933 10.0621 17.7604C10.0729 17.727 10.1023 17.7022 10.1369 17.6972L16.5659 16.763C16.7717 16.733 16.9495 16.6039 17.0415 16.4174L19.9169 10.5916C19.9482 10.5282 20.0509 10.5276 20.0825 10.5919L22.9578 16.4174C23.0497 16.6038 23.2276 16.733 23.4333 16.763L29.8624 17.6972C29.8969 17.7023 29.9261 17.7268 29.9371 17.7606C29.9479 17.7937 29.9386 17.8308 29.9136 17.8551L25.2615 22.3895C25.1127 22.5346 25.0447 22.7437 25.08 22.9486L25.427 24.9716C25.4858 25.3154 25.8125 25.5463 26.1561 25.4873C26.5 25.4283 26.7309 25.1018 26.6718 24.758L26.381 23.0623L30.7954 18.7593C31.1678 18.3962 31.2991 17.8637 31.1384 17.3701Z" fill="#35AE5D" stroke="#35AE5D" stroke-width="0.3"/>
<path d="M3.63141 19.3685H0.631562C0.282734 19.3685 0 19.6513 0 20.0001C0 20.3489 0.282734 20.6316 0.631562 20.6316H3.63141C3.98031 20.6316 4.26297 20.3488 4.26297 20.0001C4.26297 19.6513 3.98023 19.3685 3.63141 19.3685Z" fill="#35AE5D" stroke="#35AE5D" stroke-width="0.3"/>
<path d="M39.3677 19.3685H36.3679C36.019 19.3685 35.7363 19.6513 35.7363 20.0001C35.7363 20.3489 36.0191 20.6316 36.3679 20.6316H39.3677C39.7166 20.6316 39.9992 20.3488 39.9992 20.0001C39.9992 19.6513 39.7166 19.3685 39.3677 19.3685Z" fill="#35AE5D" stroke="#35AE5D" stroke-width="0.3"/>
<path d="M7.97907 31.1276L5.8579 33.2487C5.61118 33.4953 5.61118 33.8952 5.85782 34.1418C5.98118 34.2652 6.14282 34.3268 6.30446 34.3268C6.46603 34.3268 6.62774 34.2652 6.75095 34.1419L8.87212 32.0207C9.11884 31.7742 9.11884 31.3743 8.8722 31.1276C8.62556 30.881 8.22563 30.881 7.97907 31.1276Z" fill="#35AE5D" stroke="#35AE5D" stroke-width="0.3"/>
<path d="M33.2487 5.85755L31.1274 7.97865C30.8807 8.22529 30.8807 8.62521 31.1274 8.87185C31.2507 8.99521 31.4123 9.05685 31.574 9.05685C31.7356 9.05685 31.8973 8.99521 32.0205 8.87177L34.1417 6.75068C34.3884 6.50412 34.3884 6.10419 34.1418 5.85755C33.8951 5.61083 33.4952 5.61076 33.2487 5.85755Z" fill="#35AE5D" stroke="#35AE5D" stroke-width="0.3"/>
<path d="M19.9997 35.7375C19.6508 35.7375 19.3682 36.0204 19.3682 36.3691V39.3689C19.3682 39.7177 19.6509 40.0004 19.9997 40.0004C20.3486 40.0004 20.6313 39.7176 20.6313 39.3689V36.3691C20.6313 36.0203 20.3486 35.7375 19.9997 35.7375Z" fill="#35AE5D" stroke="#35AE5D" stroke-width="0.3"/>
<path d="M19.9997 4.26309C20.3486 4.26309 20.6313 3.98028 20.6313 3.63153V0.631684C20.6313 0.282856 20.3485 0.00012207 19.9997 0.00012207C19.6508 0.00012207 19.3682 0.282934 19.3682 0.631684V3.63153C19.3682 3.98036 19.6508 4.26309 19.9997 4.26309Z" fill="#35AE5D" stroke="#35AE5D" stroke-width="0.3"/>
<path d="M32.0205 31.1275C31.774 30.8808 31.3741 30.8808 31.1274 31.1275C30.8807 31.374 30.8807 31.774 31.1274 32.0206L33.2487 34.1418C33.3719 34.2652 33.5337 34.3268 33.6952 34.3268C33.8568 34.3268 34.0185 34.2652 34.1418 34.1417C34.3884 33.8952 34.3884 33.4952 34.1417 33.2486L32.0205 31.1275Z" fill="#35AE5D" stroke="#35AE5D" stroke-width="0.3"/>
<path d="M7.979 8.87201C8.10236 8.99537 8.264 9.05701 8.42564 9.05701C8.5872 9.05701 8.74892 8.99537 8.8722 8.87217C9.11884 8.62553 9.11884 8.22561 8.8722 7.97897L6.75103 5.85771C6.50447 5.61107 6.10463 5.61107 5.85783 5.85771C5.61119 6.10427 5.61119 6.5042 5.85783 6.75084L7.979 8.87201Z" fill="#35AE5D" stroke="#35AE5D" stroke-width="0.3"/>
</g>
<defs>
<clipPath id="clip0_225_514">
<rect width="40" height="40" fill="white"/>
</clipPath>
</defs>
</svg>
