<svg width="24" height="24" viewBox="0 0 24 24" fill="none" xmlns="http://www.w3.org/2000/svg">
<g clip-path="url(#clip0_33_1599)">
<path fill-rule="evenodd" clip-rule="evenodd" d="M11.2931 8.293C11.4807 8.10553 11.735 8.00021 12.0001 8.00021C12.2653 8.00021 12.5196 8.10553 12.7071 8.293L18.3641 13.95C18.4597 14.0422 18.5358 14.1526 18.5882 14.2746C18.6407 14.3966 18.6682 14.5278 18.6694 14.6606C18.6705 14.7934 18.6452 14.9251 18.595 15.048C18.5447 15.1708 18.4704 15.2825 18.3765 15.3764C18.2826 15.4703 18.171 15.5445 18.0481 15.5948C17.9252 15.6451 17.7935 15.6704 17.6607 15.6693C17.528 15.6681 17.3967 15.6405 17.2747 15.5881C17.1527 15.5357 17.0424 15.4595 16.9501 15.364L12.0001 10.414L7.05014 15.364C6.86154 15.5462 6.60894 15.647 6.34674 15.6447C6.08455 15.6424 5.83373 15.5372 5.64833 15.3518C5.46292 15.1664 5.35775 14.9156 5.35547 14.6534C5.35319 14.3912 5.45399 14.1386 5.63614 13.95L11.2931 8.293Z" fill="#35AE5D"/>
</g>
<defs>
<clipPath id="clip0_33_1599">
<rect width="24" height="24" fill="white" transform="matrix(0 1 -1 0 24 0)"/>
</clipPath>
</defs>
</svg>
