<svg width="16" height="16" viewBox="0 0 16 16" fill="none" xmlns="http://www.w3.org/2000/svg">
<path d="M10.9965 2.39323C9.70665 2.39323 8.6045 3.31262 7.99896 3.94647C7.39342 3.31262 6.29373 2.39323 5.0045 2.39323C2.78234 2.39323 1.23096 3.94216 1.23096 6.15939C1.23096 8.60247 3.15773 10.1815 5.02173 11.7089C5.90173 12.4308 6.8125 13.1766 7.51096 14.0037C7.6285 14.1422 7.8008 14.2222 7.98173 14.2222H8.01742C8.19896 14.2222 8.37065 14.1415 8.48757 14.0037C9.18726 13.1766 10.0974 12.4302 10.978 11.7089C12.8414 10.1822 14.7694 8.60308 14.7694 6.15939C14.7694 3.94216 13.218 2.39323 10.9965 2.39323Z" fill="#F10000"/>
</svg>
